<?xml version="1.0" encoding="utf-8"?>
<!-- Generator: Adobe Illustrator 25.2.3, SVG Export Plug-In . SVG Version: 6.00 Build 0)  -->
<svg version="1.1" id="Layer_3" xmlns="http://www.w3.org/2000/svg" xmlns:xlink="http://www.w3.org/1999/xlink" x="0px" y="0px"
	 viewBox="0 0 494 300" style="enable-background:new 0 0 494 300;" xml:space="preserve">
<style type="text/css">
	.st0{fill:none;stroke:#333333;stroke-width:0.5;stroke-miterlimit:10;}
</style>
<line class="st0" x1="364.5" y1="144.5" x2="352.5" y2="-3.5"/>
<line class="st0" x1="365.5" y1="141.5" x2="360.5" y2="-6.5"/>
<line class="st0" x1="339.27" y1="147.74" x2="231.27" y2="-36.26"/>
<line class="st0" x1="335.5" y1="158.5" x2="199.5" y2="-6.5"/>
<line class="st0" x1="329.5" y1="155.5" x2="182.5" y2="-3.5"/>
<line class="st0" x1="323.5" y1="174.5" x2="1.5" y2="-3.5"/>
<line class="st0" x1="347.5" y1="240.5" x2="264.5" y2="407.5"/>
<line class="st0" x1="394.5" y1="245.5" x2="487.5" y2="410.5"/>
<line class="st0" x1="396.5" y1="231.5" x2="494.5" y2="350.5"/>
<line class="st0" x1="403.5" y1="224.5" x2="494.5" y2="296.5"/>
<line class="st0" x1="393.5" y1="150.5" x2="468.5" y2="-3.5"/>
<line class="st0" x1="348.5" y1="149.5" x2="287.5" y2="-3.5"/>
<circle class="st0" cx="372.18" cy="197.34" r="53.66"/>
<circle class="st0" cx="364.13" cy="191.98" r="50.98"/>
<path class="st0" d="M364.32,174.88"/>
<line class="st0" x1="364.32" y1="174.88" x2="332.05" y2="-4"/>
<line class="st0" x1="97.5" y1="-3.5" x2="349.31" y2="184.17"/>
<path class="st0" d="M349.31,184.17"/>
<path class="st0" d="M347.11,209.32"/>
<line class="st0" x1="347.11" y1="209.32" x2="0.5" y2="383.5"/>
<path class="st0" d="M352.49,216.38"/>
<line class="st0" x1="352.49" y1="216.38" x2="177.5" y2="410.5"/>
<path class="st0" d="M366.31,222.45"/>
<line class="st0" x1="366.31" y1="222.45" x2="348.5" y2="410.5"/>
<path class="st0" d="M380.57,177.71"/>
<line class="st0" x1="485.5" y1="-4.5" x2="380.57" y2="177.71"/>
<path class="st0" d="M352.49,216.38c-2.2-1.99-4.03-4.38-5.38-7.06"/>
<path class="st0" d="M352.49,216.38c3.73,3.37,8.53,5.58,13.82,6.07"/>
<path class="st0" d="M347.11,209.32c-1.63-3.25-2.56-6.91-2.56-10.79c0-5.38,1.77-10.35,4.76-14.36"/>
<path class="st0" d="M349.31,184.17c3.57-4.79,8.89-8.19,15-9.28"/>
<path class="st0" d="M364.32,174.88c1.38-0.25,2.81-0.38,4.26-0.38c4.37,0,8.46,1.17,11.99,3.21"/>
<path class="st0" d="M380.57,177.71c7.19,4.15,12.04,11.92,12.04,20.82c0,13.27-10.76,24.03-24.03,24.03
	c-0.76,0-1.52-0.04-2.27-0.11"/>
</svg>
