<?xml version="1.0" encoding="utf-8"?>
<!-- Generator: Adobe Illustrator 25.3.1, SVG Export Plug-In . SVG Version: 6.00 Build 0)  -->
<svg version="1.1" id="Layer_3" xmlns="http://www.w3.org/2000/svg" xmlns:xlink="http://www.w3.org/1999/xlink" x="0px" y="0px"
	 viewBox="0 0 494 300" style="enable-background:new 0 0 494 300;" xml:space="preserve">
<style type="text/css">
	.st0{fill:none;stroke:#333333;stroke-width:0.5;stroke-miterlimit:10;}
</style>
<line class="st0" x1="352" y1="299.5" x2="364" y2="151.5"/>
<line class="st0" x1="360" y1="302.5" x2="365" y2="154.5"/>
<line class="st0" x1="230.8" y1="332.3" x2="338.8" y2="148.3"/>
<line class="st0" x1="199" y1="302.5" x2="335" y2="137.5"/>
<line class="st0" x1="182" y1="299.5" x2="329" y2="140.5"/>
<line class="st0" x1="1" y1="299.5" x2="323" y2="121.5"/>
<line class="st0" x1="264" y1="-111.5" x2="347" y2="55.5"/>
<line class="st0" x1="487" y1="-114.5" x2="394" y2="50.5"/>
<line class="st0" x1="494" y1="-54.5" x2="396" y2="64.5"/>
<line class="st0" x1="494" y1="-0.5" x2="403" y2="71.5"/>
<line class="st0" x1="468" y1="299.5" x2="393" y2="145.5"/>
<line class="st0" x1="287" y1="299.5" x2="348" y2="146.5"/>
<circle class="st0" cx="371.7" cy="98.7" r="53.7"/>
<circle class="st0" cx="363.6" cy="104" r="51"/>
<path class="st0" d="M363.8,121.1"/>
<line class="st0" x1="331.5" y1="300" x2="363.8" y2="121.1"/>
<line class="st0" x1="348.8" y1="111.8" x2="97" y2="299.5"/>
<path class="st0" d="M348.8,111.8"/>
<path class="st0" d="M346.6,86.7"/>
<line class="st0" x1="0" y1="-87.5" x2="346.6" y2="86.7"/>
<path class="st0" d="M352,79.6"/>
<line class="st0" x1="177" y1="-114.5" x2="352" y2="79.6"/>
<path class="st0" d="M365.8,73.6"/>
<line class="st0" x1="348" y1="-114.5" x2="365.8" y2="73.6"/>
<path class="st0" d="M380.1,118.3"/>
<line class="st0" x1="380.1" y1="118.3" x2="485" y2="300.5"/>
<path class="st0" d="M346.6,86.7c1.4-2.7,3.2-5.1,5.4-7.1"/>
<path class="st0" d="M365.8,73.5c-5.3,0.5-10.1,2.7-13.8,6.1"/>
<path class="st0" d="M348.8,111.8c-3-4-4.8-9-4.8-14.4c0-3.9,0.9-7.5,2.6-10.8"/>
<path class="st0" d="M363.8,121.1c-6.1-1.1-11.4-4.5-15-9.3"/>
<path class="st0" d="M380.1,118.3c-3.5,2-7.6,3.2-12,3.2c-1.5,0-2.9-0.1-4.3-0.4"/>
<path class="st0" d="M365.8,73.6c0.8-0.1,1.5-0.1,2.3-0.1c13.3,0,24,10.8,24,24c0,8.9-4.9,16.7-12,20.8"/>
</svg>
