<svg id="Layer_1" data-name="Layer 1" xmlns="http://www.w3.org/2000/svg" viewBox="0 0 600 300"><defs><style>.cls-1,.cls-4{fill:none;stroke-miterlimit:10;}.cls-1{stroke:#feede8;}.cls-2{font-size:28.85px;font-family:FiraMono-Bold, Fira Mono;font-weight:700;}.cls-2,.cls-3{fill:#231f20;}.cls-4{stroke:#231f20;stroke-width:10px;}</style></defs><path class="cls-1" d="M147.6,44.68c-16.44,13.62-32.19,27.51-46.37,42.49C86.45,100,72.78,113,63.29,129.31,58.63,136,52.81,142.66,49.75,149.4c-2.84,6.26-2.76,12.41-3.82,18.81-1.14,6.86-3.55,13.94-2.81,20.59.72,6.42,4.62,12.29,7.12,18.54,2.42,6.08,3.33,12.64,7.25,18.63s10.72,11.14,15.9,17,8.6,12.46,14.82,18.5,15.3,11.56,22.4,17.93c7.11,6.16,12.29,13.27,20.07,19.79,8,6.74,18.68,12.86,27.42,19.95,18.28,17.91,39.23,33.46,61.31,47.42,12.33,9,23.33,19.12,36.21,27.4,28.05,15.9,56.64,30.1,86.15,41,13.75,3.85,27,3.45,40.54,4.05,30.05,3.06,43.56,2.29,70.09-13.56,28.9-10.65,33.17-14.11,52.38-38.88,26-23.7,34.21-39.63,45.17-73.81,5.34-13.35,12.33-25.12,15.82-39.82,3.38-14.27,3.4-31.22,5-46.35,1.55-14.9,4.55-28.18,4.16-43.63-2.86-30.42-7.3-62.64-13.17-92.65A838.45,838.45,0,0,0,526.9-1.86c-22.13-39.1-45-80-79.55-107.35-9.81-8.56-19.39-16.78-29-21.74a121.2,121.2,0,0,0-51.91-9.88C351.07-137,336-130.4,321.48-122.6c-7,4.6-14.07,11.66-21.45,17.86-16.53,12-30.65,26.66-44.57,42.16-17.44,16-33.68,33.7-49.76,51.24C186.06,7.06,166.39,26.31,147.6,44.68Z"/><path class="cls-1" d="M141.83,41.82c-17.16,13.82-33.71,27.82-48.69,42.95-15.55,12.94-30,26.06-40.08,42.7-4.93,6.81-11,13.57-14.25,20.51-3,6.44-3.05,12.88-4.19,19.49-1.23,7.05-3.71,14.25-3,21.08.7,6.62,4.64,12.76,7.18,19.18,2.47,6.26,3.43,12.93,7.45,19.09s11,11.54,16.29,17.59,8.87,12.71,15.25,18.91,15.67,11.94,23,18.5,12.94,13.81,21.09,20.69c8.42,7.11,19.48,13.7,28.64,21.23,19.26,19,41.24,35.73,64.29,51,25.62,22.09,55,42.3,85.6,55.49,14.53,7.21,29.15,15.57,44.15,20,14.57,4.31,28.55,4.19,43,4.93,13.36.7,28,2.89,41,.33,11.83-2.34,21.57-9.25,32.75-14.59C471.42,436,483.45,433,493,425.64c8.75-6.73,14.84-17.44,22.83-26.18,9.54-10.7,20.91-20.22,28.9-33.86,7.4-12.66,11.5-29.08,17.15-43.73,15.46-31.32,19.6-54.54,20.61-89.77,1.44-15.46,4.32-29.19,3.75-45.16A944.37,944.37,0,0,0,571.6,91.19C552,26.33,521.77-36.87,480.33-89.46c-9.54-11.59-19.71-20.67-29.39-29.17-17.68-16.78-35.65-29.26-58.44-31.73-8.62-1.57-17.2-3.32-25.47-2.16-15.59,3.9-30.76,10.83-45.38,19.09-14.24,11.49-29.45,25.13-43.86,37.76-15.23,16.75-31.32,33.76-47.85,49.77C203.09-14.76,171.09,13.7,141.83,41.82Z"/><path class="cls-1" d="M136.11,38.8C118.2,52.77,100.8,66.81,85,82,68.64,95,53.44,108.19,42.69,125.2c-5.2,6.94-11.53,13.79-15,20.93-3.19,6.63-3.35,13.38-4.58,20.23C21.83,173.61,19.28,180.93,20,188c.69,6.83,4.69,13.25,7.28,19.87,2.53,6.46,3.56,13.24,7.69,19.59s11.24,11.95,16.71,18.17,9.17,13,15.74,19.34S83.47,277.28,91,284c7.78,6.74,13.62,14.35,22.14,21.58,20.9,14.85,39.78,31,59,49.17,26.5,18.71,52.57,40,78.23,60.24,16.22,11.35,33.81,20.11,50.08,28.57,28.63,17,59.28,28.92,92.37,27.88,14,.83,29.37,3.09,43,.38,12.36-2.46,22.56-9.69,34.23-15.37,10.62-5.18,23.11-8.56,33-16.32,9.08-7.15,15.43-18.4,23.7-27.66,9.79-11.28,21.4-21.38,29.54-35.71,7.54-13.3,11.69-30.44,17.4-45.75,5.43-14.59,12.49-27.45,15.91-43.35,3.32-15.45,3.14-33.74,4.49-50,1.33-16,4.07-30.17,3.31-46.64A918.44,918.44,0,0,0,581.24,92.4c-21.08-67.71-53.36-133.74-96.5-189-26.2-28.36-53.51-59.84-91.41-65.23-8.81-1.67-17.6-3.37-26-2.16-15.78,4-31,11.18-45.63,19.86-14.36,12-29.69,26.22-44.2,39.45-15.54,17.56-32,35.43-49,52.22C200.68-19.75,167.17,10.06,136.11,38.8Z"/><path class="cls-1" d="M130.43,35.6c-27.77,20.49-53.75,43.1-79.71,64.48C43.16,107.25,38,115,32.16,122.44c-11.42,12.71-20,25.36-20.67,42.4-1.4,7.47-4,14.94-3.3,22.21.7,7.06,4.75,13.79,7.42,20.62s3.7,13.6,8,20.14,11.54,12.4,17.18,18.8S50.25,259.86,57,266.4s16.48,12.73,24.17,19.66c8.14,7,14.31,14.89,23.21,22.48,9.18,7.83,21.09,15.34,31.06,23.77,21.25,21.06,45.21,40.3,70.13,58.21,42.14,38.6,92.37,69.61,144.54,90.69,16.19,5.28,31.74,5.72,47.86,6.76,14.68.95,30.75,3.29,45,.41,12.87-2.59,23.51-10.14,35.67-16.18,11-5.48,24-9.17,34.23-17.41,9.4-7.56,16-19.36,24.56-29.14,10-11.88,21.88-22.58,30.17-37.61,7.68-13.93,11.89-31.82,17.64-47.79,5.48-15.22,12.56-28.62,15.94-45.11,3.27-16,3-35,4.22-51.75,1.21-16.55,3.8-31.1,2.84-48s-5.27-36.07-8.21-53.17C586.85,52.71,541.66-32.09,488.71-103.35c-27.14-30-55.48-63.44-94.95-69.66-17.95-4.75-33.6-2.56-49.7,6.6-17.27,6.3-30.55,17.65-44,31.69-17.19,14.3-32,31.13-46.78,48.66-18.78,18.89-36.79,39.41-55,59.13C176.09-5.67,152.86,15.94,130.43,35.6Z"/><path class="cls-1" d="M300-144.55c-26.87,23.53-48.13,53.44-73.89,79C196.37-29.82,159.7,2.63,124.8,32.18,105.27,46.24,86.06,60.11,68.47,75.33c-18.1,12.86-34.95,26.07-47,43.82C9.29,132.27.55,145-.37,162.87c-5.17,17.34-4.28,28.25,4.17,44.32,4.46,18.05,12.4,27.13,26,40.19,5.79,6.55,9.86,13.55,16.84,20.27s16.93,13.15,24.85,20.28c8.51,7.31,15,15.42,24.3,23.36,22.43,16.26,43.4,34.76,64,54.7,12.67,10.81,27.92,21.16,41.29,32.23,44.31,41.46,96.71,75.9,151.94,98.72,17,5.77,33.31,6.49,50.26,7.67,35,4.26,53.59,2.77,84.11-16.57,32.88-13.38,39.74-19.78,60.84-49.13,27.69-28.25,38-50.48,48.67-89.43,15.36-34,19.91-62.76,19.88-100.35,5-34.88,1.53-69.53-6.63-104C605.51,109,593.6,74.6,578.87,41.63c-14-36.83-33.25-72.71-54.6-104.81-28-44.91-78.22-112.15-130.51-120.74-18.12-4.81-33.81-2.62-49.94,6.76C326.54-170.55,313.44-158.95,300-144.55Z"/><path class="cls-1" d="M125.51,40.92a152.32,152.32,0,0,0-23.45,19.33A123,123,0,0,0,78.78,79.58c-8.19,5.56-15.56,11.58-21.45,19.36-4.41,4.31-10,8.11-13.89,12.41s-5.53,8.85-8.65,13.18c-7.1,7.65-12.4,14.63-14,25-5.31,9.22-7.46,12.85-5.93,23.87C11.35,189.91,13,199,21.57,213.67c2.76,6.32,3.92,12.94,8.15,19.18s11.43,11.85,16.92,18,9.15,12.84,15.7,19.19,16,12.35,23.49,19.09c8,7,14,14.74,22.79,22.24,9,7.74,20.77,15.16,30.56,23.48,20.78,20.77,44.27,39.71,68.73,57.26a465.38,465.38,0,0,0,144,89.54c16.65,5.23,32.64,5.46,49.23,6.17,15,.65,31.47,2.58,46-.81,13.1-3.06,23.89-11.13,36.19-17.77,11.16-6,24.21-10.34,34.48-19.22,9.43-8.16,16-20.58,24.47-31,9.4-12,20.6-22.71,28.26-37.54,7.14-13.87,10.83-31.53,16.11-47.21,5-15,11.73-28.18,14.76-44.34,2.94-15.76,2.38-34.36,3.37-50.78,1-16.25,3.38-30.48,2.3-47.07A936.17,936.17,0,0,0,589.09,92c-18-52.68-39.9-106.09-71-151.66-17.5-28.81-37.7-55.81-61.66-76.67-25-25.88-54.7-40.87-89.18-38.68-15.87,4-31,11.39-45.58,20.41-7,5.14-14.07,12.79-21.6,19.86-17.57,14.69-32.68,32-47.85,50-19.27,19.54-37.84,40.73-56.55,61C172.71-1.74,148.52,20.59,125.51,40.92Z"/><path class="cls-1" d="M126.4,49.57A138.7,138.7,0,0,0,104,69.24,109.36,109.36,0,0,0,82.31,88.93c-7.52,5.69-14.25,11.73-19.24,19.59-4,4.44-9.25,8.56-12.58,13s-4.36,8.81-6.9,13.19C37.27,143,33.31,149,32.89,159.63c-4.32,9.72-5.78,12.61-3.09,23.4-1.79,15.71.4,23.24,9.18,36.59,5.18,16.23,11.66,22.79,24.3,34.55,5.17,5.77,8.5,12.18,14.66,18.17s15.17,11.56,22.22,17.92c7.55,6.58,13.12,14,21.35,21.08,8.5,7.29,19.66,14.13,28.87,21.87,19.33,19.4,41.36,36.75,64.42,52.61,13,10.15,24.6,21.4,38.12,30.85,15.38,10.76,32.08,18.92,47.47,26.92,30.4,18,63.42,30.1,98.61,27.54,14.7.22,30.81,1.69,45-2,12.81-3.38,23.3-11.65,35.24-18.52,10.88-6.26,23.6-10.86,33.51-19.9,9.14-8.34,15.39-20.81,23.5-31.36,8.54-11.53,18.9-21.62,25.79-35.57,6.49-13.14,9.61-29.85,14.38-44.61,4.58-14.21,10.84-26.59,13.56-41.85,2.66-14.91,1.91-32.51,2.79-48.06.86-15.39,3.23-28.92,2.21-44.67-4.12-31.69-9.67-64.81-16.87-96C557,22.35,525.46-42.26,483.24-96.48c-25.9-28.06-52.85-59.36-90.34-64.85-8.78-1.71-17.51-3.47-25.87-2.29-15.7,3.86-30.83,11-45.42,19.61-14.71,12.26-30.38,26.82-45.12,40.49C260.06-84.92,242.7-65.88,224.86-48,195.23-13.1,159.12,18.81,126.4,49.57Z"/><path class="cls-1" d="M44.64,192C44.39,207,47,213.09,56,225.25c5.53,15.38,11.46,21,23.72,32.12,4.92,5.42,8,11.55,13.76,17.18s14.4,10.78,21,16.74c7.1,6.18,12.23,13.29,20,19.87,8,6.8,18.55,13,27.18,20.2,9.06,7.52,16.3,16.09,26,23.88,23.54,16,46.63,34.23,69.24,51.68,14.07,9.43,29.42,16.29,43.51,23.29,16,8,32.44,16.78,49.34,21.15,15.94,4.13,31.22,3.39,47.06,3.15,14.37-.22,30.12.79,43.94-3.27,12.51-3.69,22.69-12.15,34.26-19.24,10.59-6.49,23-11.37,32.52-20.56,8.84-8.51,14.77-21,22.5-31.68,7.71-11,17.24-20.53,23.4-33.63,5.85-12.44,8.4-28.21,12.66-42.06,12.65-30.79,15-51.28,14.54-84.71,4.24-29.7,1.34-59.32-5.43-88.76-3.31-32.38-13.08-63.37-25.93-92.74a373.68,373.68,0,0,0-44.93-88.74C483.1-87.27,453.5-119.38,419.52-141a116.18,116.18,0,0,0-53-11c-15.48,3.76-30.53,10.55-45.06,18.72-7,4.75-14,12-21.44,18.46C282-100.82,266.5-84,251.16-66.46c-30,29.29-57.49,63.05-88.9,90.55-23,22.78-44.08,42.82-67.56,63.49a143.6,143.6,0,0,1-19.16,20.08c-5.07,8.47-12,16.06-17.9,23.49-2.76,4.37-3.23,8.72-5.24,13.11-5.5,8.94-8.41,14-7.52,24.75C41.58,179.31,40.72,181.45,44.64,192Z"/><path class="cls-1" d="M59.39,200.65c1.24,14.35,4,18.9,13.25,30.13,6,14.68,11.24,19.26,23.3,29.79,4.7,5.06,7.49,10.91,13,16.17s13.69,10,20,15.51c6.67,5.77,11.38,12.5,18.61,18.59,7.48,6.3,17.45,11.9,25.5,18.45,8.44,6.88,15.08,14.84,24.07,21.87,9.64,7.54,21.49,14,31.59,21.32,11.06,8,20.73,17.23,32.17,24.55,12.78,8.18,26.78,13.81,39.58,19.87,15.58,7.41,31.68,15.63,48.21,19.43,15.55,3.57,30.46,2.36,45.9,1.64,14-.64,29.41-.09,42.84-4.48,12.2-4,22.05-12.64,33.25-19.93,10.29-6.7,22.32-11.87,31.49-21.19,8.53-8.67,14.14-21.2,21.49-32,6.91-10.52,15.62-19.45,21.08-31.72,5.21-11.75,7.21-26.59,11-39.56,11.68-29.64,13.37-47.57,12.71-79.51.61-13.65,2.84-25.71,1.91-39.66s-4.84-29.6-7.13-43.64c-3-30.94-12.08-60.58-24.33-88.59C524.39-5.95,498.88-45.67,472.32-81.47c-8.64-10.45-18-18.49-26.83-26.24-16.53-15.9-33.58-27.61-55.2-29.93-16.79-4.68-31.74-2.79-47.23,5.33-16.63,5-29.83,15-43,27.58-28.3,21.25-50.34,49.93-76.27,74.3C187.82,11.21,145,47.45,108.29,86.94c-7.17,6-13.58,12.31-18.43,20.13-6.23,5.82-11.79,11.75-15,19.58-6.81,8.19-12.38,16.26-13.62,26.71-4.63,9.35-6.77,14-4.5,24.54C54.56,188.67,54.27,190.51,59.39,200.65Z"/><path class="cls-1" d="M69.39,191.38c-.38,13.54,1.23,17.91,9.23,29.1,4.16,14.1,8.22,18,19,28.12,8.52,14.31,14.76,18.84,28.23,29,6.47,5.82,11.09,12.65,18.31,18.83,7.39,6.32,17.35,11.94,25.48,18.57,8.46,6.92,15.19,15,24.34,22.08,9.76,7.6,21.83,14.12,32.17,21.56,11.35,8.16,21.33,17.52,33.1,24.93C288,399,316.49,413.09,347.45,421.4c15.16,3,29.69,1.36,44.73.19,32.29-.56,48.62-5,73.94-26.24,28.32-16.27,35.25-24.85,50.83-54.09,19.16-25.26,22.11-35.64,28.2-66.89C555.86,245.76,556.89,230.59,556,200c.46-12.78,2.59-24.08,1.68-37.1s-4.7-27.57-6.81-40.63c-2.66-29.44-11.13-57.63-22.79-84.2A293.76,293.76,0,0,0,489-40c-13.1-22.39-28.55-42.56-48.09-57.54-9-7.94-17.79-15.78-26.83-20.49a124.45,124.45,0,0,0-49.5-10c-14.81,3.5-29.46,9.5-43.65,16.62-14.29,10.86-29.69,23.49-44,35.46-25,26.36-52.28,52.05-76.39,79.5C179.93,23.44,159.1,44.3,140.39,64.52a105.31,105.31,0,0,0-18.83,19.39c-6.77,5.76-12.78,11.85-17.39,19.29-6,5.61-11.36,11.35-14.61,18.81-3,4.34-7.44,8.65-9.85,12.89s-2.47,8-4.16,12.14-5,8.2-6.08,12.11.31,7.15-.17,10.92C66.37,180,65.37,181.27,69.39,191.38Z"/><path class="cls-1" d="M300-84.34C274.4-67.18,254.84-42.61,231.83-22,206.61,6.82,177,33.63,152,61.9a96.33,96.33,0,0,0-17.41,18.36c-6.38,5.49-12,11.32-16.37,18.37-5.79,5.39-10.94,10.93-14.25,18-2.92,4.06-7.23,8.06-9.68,12A144.11,144.11,0,0,1,83,151.43c-1.31,3.55-.36,6.71-1.19,10.26s-3.5,7.28-3.91,10.68c4.34,19.92-4.77,18,6.85,37.58C87,223.33,90,226.84,99.55,236.67c3.2,4.39,4.5,9.58,8.47,14.05s10.47,8.1,15.14,12.67c6.24,5.88,10.75,12.82,17.94,19.1s17.21,12,25.39,18.67c8.47,6.93,15.29,15,24.59,22.22,22.52,14.42,44.95,31.13,66.73,46.88,29,15.41,57.24,28.77,88.48,36.3,14.77,2.51,28.9.37,43.54-1.23,13.32-1.46,27.94-1.78,40.58-6.79C442,394,451.13,385,461.56,377.31c9.66-7.12,20.94-12.83,29.33-22.41,7.87-9,12.77-21.58,19.29-32.55,17.55-24.6,19.33-32.74,24.45-62.53,9.7-27.55,10.16-40.06,8.94-69.17.3-11.88,2.33-22.42,1.42-34.48-4.16-25.39-8.09-51.83-13.11-76.88C523,52.63,512.92,26.06,502.06.87a607.35,607.35,0,0,0-42.35-65.74c-15-15.84-31.73-30.57-49-41.34a129.7,129.7,0,0,0-47.55-9.49c-14.38,3.34-28.71,8.91-42.64,15.46C313.81-96.24,307.06-89.79,300-84.34Z"/><path class="cls-1" d="M300-74c-24.13,15.13-42.36,37.64-63.89,56.27C213,8.46,186,32.76,163.44,59a84.91,84.91,0,0,0-16.08,17.22A75.19,75.19,0,0,0,132,93.56c-5.6,5.12-10.52,10.45-13.86,17.16-6.18,6.63-11.64,13.28-14.48,21.75-4.82,6.39-8.83,12.24-9.38,20.31-3.92,7.63-6,9.79-4.53,18.84-.62,4.76-3,10-2.84,14.71s3,8.4,4,12.89.13,9.37,1.9,13.69,6.12,7.68,8.67,11.91,3.09,9.06,6.33,13.23,9,7.38,12.92,11.57c5.93,6,10.26,13.07,17.37,19.46s17,12,25.24,18.79c8.46,6.94,15.38,15.1,24.83,22.3,10,7.64,22.49,14.19,33.31,21.72,23.35,19.07,51,36.21,78.92,45.49,14.32,5.79,29.32,12.29,44.75,14.44,14.37,2,28.1-.56,42.33-2.59,13-1.84,27.2-2.58,39.43-7.86,11.21-4.86,20-14,30.07-21.84,9.33-7.32,20.23-13.29,28.22-23,7.51-9.15,12-21.74,18.11-32.82,15.78-23.44,16.84-30.29,20.84-58.17,8.57-25.92,8.65-36.91,7-64,.12-11,2-20.76,1.11-31.86s-4.52-23.42-6.31-34.47c-2.08-13-2.75-24.86-6.08-37.18-8.4-24.89-17.78-49.71-27.74-73.3A606.87,606.87,0,0,0,452.82-56C438.64-70.57,423-84.1,406.89-94.2a136.85,136.85,0,0,0-45.46-9C347.54-100,333.6-94.94,320-89,313.47-85.26,306.87-79.11,300-74Z"/><path class="cls-1" d="M300.36,364.35c27.48,12.4,55,16.9,84.68,8.91,30.53-3.44,44.92-9.25,67.21-31.33,9-7.49,19.51-13.73,27.08-23.56,7.14-9.3,11.27-21.88,16.91-33,4-8.29,9.87-15,12.76-24.09s2.76-20.17,4.6-29.74,5.53-17.66,6.34-27.56-1.2-21.26-1.26-31.31,1.71-19.09.77-29.22-4.48-21.3-6.14-31.34c-1.94-24.66-8.73-48.2-18.78-70.25C490.18,30.24,487,19,481.72,8.52a610.29,610.29,0,0,0-36.59-56c-13.38-13.18-28-25.35-42.92-34.74-7.23-3.54-14.81-4.18-22.16-5.54-14.36-4.46-27.38-3.12-41.11,3.29C324.1-81.49,312-73.74,300-63.62c-6.49,4.62-12.87,7.9-19.11,13.11C268.21-38.22,255-25.93,241.47-14.29c-20.81,23.2-44.92,44.39-64.82,68.08a291.52,291.52,0,0,0-33.81,37.26c-11,11.43-20.83,23-27.66,36.75-3.6,5.81-8.54,11.77-11.2,17.49-2.5,5.39-2.54,10.39-4,15.8-1.27,4.7-4.27,9.87-4.81,14.48-.51,4.44,1.53,8.26,1.85,12.66s-1.24,9.13-.18,13.32,4.68,7.38,6.53,11.42,1.71,8.65,4.25,12.58,7.58,6.81,10.84,10.68c5.56,6.14,9.65,13.4,16.64,19.92s16.73,12.12,25,18.93c8.44,6.95,15.45,15.14,25.07,22.35C195.36,305,208,311.54,219.1,319.05,243.11,338.16,271.86,355.45,300.36,364.35Z"/><path class="cls-1" d="M300-84.34C275.19-67.84,256.3-44.11,234-24.29,209.62,3.46,181.14,29.17,156.9,56.36a95.67,95.67,0,0,0-17.18,17.77A83.13,83.13,0,0,0,123.18,92c-6,5.26-11.24,10.77-15,17.69-3.06,3.88-7.43,7.6-10.11,11.39a143.15,143.15,0,0,1-13.27,22.1c-1.69,3.46-1.22,6.65-2.47,10.11s-4.26,7.05-5.09,10.37c1.54,19.54-7,19.23,2.59,38.9C81.16,216,83.87,220,93,230.1c3,4.47,4.14,9.71,8,14.26s10.18,8.21,14.73,12.82c6.29,6.08,10.91,13.23,18.29,19.76s17.59,12.44,26.05,19.41c8.73,7.19,15.86,15.56,25.54,23.06,10.28,8,23,14.92,34.07,22.82,23.91,19.91,52.07,38,80.7,48.25,14.75,6.32,30.12,13.38,45.92,16.07,14.77,2.52,28.9.38,43.54-1.22,13.32-1.46,27.94-1.78,40.58-6.79C442,394,451.13,385,461.56,377.31c9.66-7.12,20.94-12.83,29.33-22.41,7.87-9,12.77-21.58,19.29-32.55,17.55-24.6,19.33-32.74,24.45-62.53,9.71-27.56,10.16-40,8.94-69.17.3-11.88,2.33-22.42,1.42-34.48-4.16-25.39-8.09-51.83-13.11-76.88C523,52.63,512.92,26.06,502.06.87a607.35,607.35,0,0,0-42.35-65.74c-15-15.84-31.73-30.57-49-41.34a129.91,129.91,0,0,0-47.55-9.49c-14.38,3.34-28.71,8.91-42.64,15.46C313.81-96.24,307.06-89.79,300-84.34Z"/><path class="cls-1" d="M300-104.74C282.66-92,267.86-76.41,253.29-60c-18.44,17.33-35.71,36.44-52.74,55.21-27.5,27.17-55.1,53.24-81.44,80.21a94.49,94.49,0,0,0-18.84,19.17c-6.59,5.59-12.48,11.42-16.58,18.9C76.37,121,70,128.5,66.88,138.31c-5.56,7.87-9.2,13.34-9.29,23.21-3.88,9.11-5.42,11.49-2.65,21.56-1.71,14.21-.21,20.46,7.66,32.65,4,15,8.87,20,20.17,30.91,9.21,15.1,16.68,20.81,30.9,31.78,6.87,6.15,11.87,13.3,19.54,19.9,7.83,6.74,18.3,12.9,26.92,20.05,18.1,18.22,38.19,33.43,60.2,47.72,23.81,20.59,51.4,39.26,80,50.8,15.58,7.42,31.68,15.64,48.21,19.44,15.55,3.57,30.46,2.36,45.9,1.64,32.89.39,49.7-3.53,76.09-24.41,29.2-15.67,36.31-23.93,53-53.16,20.85-26,25-38.42,32.05-71.28,11.68-29.65,13.37-47.56,12.71-79.51.61-13.65,2.84-25.71,1.91-39.66-4.07-28.67-8.78-58.63-14.81-86.86C540.3,38.39,523.86-7.55,496.83-45.69,477.16-80,449-109.43,417-129.62a120,120,0,0,0-51.33-10.49c-15.18,3.64-30.06,10.05-44.46,17.71C314.32-117.87,307.35-110.89,300-104.74Z"/><path class="cls-1" d="M32.05,191.83c.12,16,3.5,23.13,13.34,36,6.68,16.2,14,23.07,27.42,34.81,5.64,5.93,9.44,12.54,16,18.74s16.1,12.07,23.58,18.73c7.3,6.33,12.56,13.53,20.41,20.26,8.16,7,18.88,13.48,27.6,20.83,9.21,7.76,16.53,16.51,26.31,24.53,23.78,16.62,47,35.43,69.85,53.49,14.13,9.74,29.56,17,43.8,24.37,16.37,8.54,33.19,17.94,50.44,22.89,16.3,4.68,31.95,4.43,48.17,4.65,14.7.22,30.81,1.69,45-2,12.81-3.38,23.3-11.65,35.24-18.52,10.88-6.26,23.6-10.86,33.51-19.9,9.14-8.34,15.39-20.81,23.5-31.36,24.26-27.24,31.23-44.27,40.16-80.18,4.59-14.21,10.85-26.59,13.57-41.85,2.66-14.91,1.91-32.51,2.79-48.06.86-15.39,3.23-28.92,2.21-44.67s-5.23-33.5-7.94-49.38c-3.7-33.73-14.15-66-27.62-96.63-17.34-49-46-94.49-76.19-135C464.66-118,443.59-138.2,421.53-152A112.75,112.75,0,0,0,367-163.63c-15.71,3.87-30.84,11-45.43,19.62-7,5-14.08,12.42-21.57,19.2C281.73-110,266-92.42,250.33-74.15c-20,19.9-39.15,41.52-58.36,62.21C168.43,10.65,143.55,33.59,120.67,55A134.58,134.58,0,0,0,98,75c-8.1,5.91-15.38,12.26-21.37,20.09C69.35,100.91,62.83,107,58.36,115c-3.79,4.63-9,9-12,13.63s-3.65,9.06-5.83,13.58c-5.85,9-9,14.65-8.23,25.66C28.81,178.37,28,181.11,32.05,191.83Z"/><path class="cls-1" d="M8.93,199.15c2.29,17.73,7.64,26.08,19.45,39.76,9.31,17.4,19.38,26.32,34.91,39.26,7.06,6.85,12.27,14.34,20.32,21.61,8.23,7.44,19.33,14.64,28.39,22.67,7.6,6.59,13,13.89,21,20.79,8.4,7.29,19.3,14.13,28.08,21.68,9.39,8.08,16.78,17,26.57,25.25,10.62,8.95,23.49,17,34.51,25.79,23.52,21.51,49.9,40.74,78.26,54.6,17.14,9.67,34.65,20.28,52.59,26.38,17,5.77,33.31,6.49,50.26,7.67,15.32,1.08,32.1,3.48,47,.44,13.37-2.74,24.45-10.6,37.09-17,11.44-5.79,24.81-9.8,35.43-18.51,9.72-8,16.58-20.32,25.41-30.62,10.28-12.5,22.37-23.82,30.8-39.57,7.81-14.59,12.09-33.23,17.88-49.86,5.52-15.86,12.62-29.8,15.94-46.88,3.23-16.61,2.84-36.19,3.93-53.47,1.08-17.08,3.51-32,2.34-49.38A874,874,0,0,0,599.77,95.88,944,944,0,0,0,555.51-10.74C521.61-71.68,481.78-135.83,424-173.4c-10.51-6.06-20.43-8.55-30.26-10.52-18.12-4.81-33.81-2.62-49.94,6.76-17.29,6.61-30.37,18.21-43.78,32.61-29.59,26.42-53.31,59.76-81.89,88.1C180-12.61,134.63,27.81,88.57,61.22c-4.44,3.46-8,7.77-12.24,11.18C67.23,78.33,59,84.78,52.18,93c-8.09,5.89-15.25,12.16-20.1,20.81-4.18,5-9.73,9.66-13,14.74-3.13,4.91-3.74,10.11-5.86,15.14-6.12,10.47-8.64,16.36-6.91,28.64C3.53,184.11,3.72,188,8.93,199.15Z"/><path class="cls-1" d="M-20.26,187c.89,19.63,6.7,30.62,19.13,46,9.66,18.62,22.09,30,38.7,43.78C53.3,295,72.38,310.28,92,325.83c8.34,7.27,14.42,15.15,23.11,22.83,21.22,15.94,40.84,33.94,59.78,53.17,11.7,10.36,25.75,20.07,37.87,30.36C254,471.94,304,503.74,355,527.68c17.62,6.88,34.56,8.59,52.21,10.76,15.87,2,33.29,5.34,48.9,3C470,539.39,481.64,532,495,526c11.93-5.3,25.92-8.71,37.19-17.08,10.24-7.61,17.64-19.83,27.13-29.88,12.16-13.35,26.14-26,36.22-43.64,9.19-16.11,14.64-36.77,21.47-55.41,6.45-17.61,14.37-33.21,18.24-52.16,3.75-18.33,3.65-39.87,4.88-58.82,5.36-38.05,1.28-75.61-8-113C617.51,75.7,578.13-.26,535.24-68.57,498.91-126.06,418.47-241.4,342.87-198c-17.14,7.16-29.68,19.1-42.82,34.07-29.21,28-52.89,62.69-81.85,92.14C179-25.85,130.8,15.94,80.27,46.9A175.72,175.72,0,0,1,51.39,66.47,193,193,0,0,1,24.73,86.58C17,95.75,7.5,103.78-.65,112-4.6,117-6.06,122.58-9,127.79c-7.77,10.64-11.16,16.83-11,30.28C-24.15,170.09-24.52,174.75-20.26,187Z"/><path class="cls-1" d="M88.12,23.76A191.45,191.45,0,0,0,56.67,41.48c-5.41,3-11.37,4.72-16.6,7.62A198.3,198.3,0,0,1,9.33,67.54c-4.78,3.17-8,7.53-12.3,10.94-5.9,4.63-13,8.42-18,13.42s-7.23,10.89-11,16.23c-3.64,5.15-8.94,9.72-11.61,15.2-2.56,5.27-2.35,11.3-3.9,16.79-1.48,5.29-4.89,10.17-5.48,15.6-.57,5.24,1.73,10.87,2.07,16.12.76,9.48.36,18.59,3.62,27.69,3.2,8.92,10.07,17.64,15.53,26.08s9.31,16.61,16.59,24.77,17.9,16.06,26.74,24.28c17.94,19.63,39.31,36.51,60.87,53.92,9.09,7.93,15.86,16.38,25.28,24.83,23,17.85,44.27,37.95,64.78,59.4,28.77,23.7,56.61,50,84.22,75.11,35.23,26.75,71.78,51.36,110.19,70.7,18.18,7.93,35.66,10.61,53.95,13.76,16.35,2.84,34.34,7.18,50.58,5.6,14.34-1.4,26.45-8.36,40.37-13.74,12.38-4.78,26.94-7.55,38.83-15.54,10.72-7.2,18.64-19.24,28.76-29,14.15-14.11,30.14-28.12,42-47.92,10.59-17.73,17.26-40.56,25.13-61.35,7.37-19.46,16.07-36.85,20.46-57.7,4.22-20.09,4.36-43.53,5.66-64.06C674.17,184.6,630.74,84.6,583.26-5.88,540.08-80.6,492.07-164.77,422.15-213.33c-19.8-11.38-39-15.64-59.37-13.6-15.31,4.34-29,12.27-42.5,22.23C283.85-169.59,254-125.24,218.7-87.32,183-43.08,135.47-5.06,88.12,23.76Z"/><path class="cls-1" d="M81.55,8.18a221.92,221.92,0,0,0-34.5,15.3c-6,2.54-12.42,3.59-18.29,6A201.83,201.83,0,0,1-6.36,45.16c-5.57,2.77-9.67,7.1-14.81,10.24-6.86,4.16-14.9,7.21-20.87,12s-9.29,11-14,16.31c-4.59,5.19-10.8,9.51-14.36,15.26-3.42,5.55-4,12.36-6.29,18.34-2.2,5.75-6.28,10.81-7.44,16.86-1.11,5.84.78,12.46.75,18.4.11,11.3-.61,21.93,2.72,32.71,3.27,10.61,10.58,21.09,16.67,30.89s10.75,19,19,28.23,20.07,18.19,30.13,27.26C14.51,302,51.3,325.91,80.85,357.52c24.83,19.73,47.66,41.94,69.63,65.63,31.11,27.08,61.14,57.24,90.9,85.81,37.41,31,76.14,58.13,117.3,80.7,18.64,8.94,36.56,12.53,55.41,16.65,16.76,3.67,35.25,9,52.06,8.17,14.73-.72,27.27-7.18,41.76-12,12.79-4.23,27.88-6.31,40.36-13.84,11.16-6.75,19.57-18.55,30.29-28C594.81,546,613,530.43,626.67,508.25c12-19.48,19.93-44.66,28.84-67.78,20-41.4,29.09-86.88,28.77-132.76,5.46-43.53-.29-85.42-12.61-127.27-22.81-90.6-73.3-173.87-121-253.77-36.56-56.67-110.29-179.2-183-172.14-13.84-.89-23.82,6.77-35.85,12.38-10.91,10-22.89,18.31-31.68,31.28-9.82,9.41-17.8,20.34-26,32-17,19.15-30.91,41.58-48.93,60.45C214-95.11,202.07-80.92,188.49-69.09a209.51,209.51,0,0,1-37.7,33.42C130.23-17.14,105.08-5.41,81.55,8.18Z"/><path class="cls-1" d="M688.81,193.74C659.9,98.93,604.16,12.37,554.61-73.86c-39.14-61-100.12-171.24-170-188.2-8.2-2.39-15.57-3.42-23.35-.73-8.71.46-15.7,2.65-22.57,7.84-7.75,2.92-13.29,7.23-19,13.68-8,5.5-13.64,12.51-19.69,21-9.3,9.36-16.74,20.21-24.52,31.84-16.79,20-30.65,43.2-48.73,62.85C210.33-103,189.57-83.37,169.62-64.13,155.38-53.37,141.08-42.6,126.5-32.77Q101-19.87,75.28-8.55c-44.78,13-91.51,24-133.49,42.68-20,12.35-43.78,36.95-54.4,57.28-7.09,20.74-8.21,54-3.85,75.46C-113,179.67-105.1,192.39-98.2,204c12.77,25.7,33.48,45.28,56.39,63.57,23.4,23,50.39,43.13,76.49,64.71,21.51,21.31,44.44,41.49,67.69,61.95,26.34,28.57,54.6,56.64,83.37,83.6,34.33,37.62,73.28,76.12,114.55,103.34,35.63,27.12,73.16,50.88,116.54,59,36.84,11.4,59.2,15.28,96.29.64,38.1-7.39,44.75-10.87,73.51-38.68,43.31-30.06,70.82-79.22,87.24-132,21.46-45,31.69-94.62,31-144C710,280.14,703.1,237,688.81,193.74Z"/><path class="cls-1" d="M-59.27,151.72c-4.27,23.8.11,39.73,13.13,60,9.06,21.55,25,37.39,43.56,52.75,9.22,8.64,16.79,17.56,27.32,26.6,21.33,16.29,43,34.19,62.38,54,10.45,9.18,23.55,18.4,34.4,28.21C145.19,397.77,171.09,421,197.83,443c30.86,30.7,65.62,60.58,102.53,82.29,17.53,11.25,35,23.76,52.9,32,17.27,8,33.87,11,51.16,14.83,15.69,3.45,32.9,8.58,48.55,8.06,13.88-.47,25.68-6.34,39.29-10.49,12.09-3.68,26.37-5.2,38.16-11.87,10.58-6,18.51-16.82,28.69-25.27,38.11-27.63,59.16-63.6,74.78-110C654,383.8,663.37,340.72,664,296.81c6.41-42.14,2-83.4-8.69-124.61-6.83-39.78-22-76.78-39.28-113.37C570.26-36.41,507.82-152.56,422.42-213.84c-19.86-11.34-39-15.49-59.45-13.37-15.34,4.41-29.13,12.41-42.61,22.42-46.63,46.63-86,104.39-133.27,151.9C160-27.47,129.39-3.66,98.94,15,74.22,27.87,49.22,39.59,26.15,53.71c-23.56,11.36-45.4,24-60.63,44.57C-50.83,114.72-59.1,128.17-59.27,151.72Z"/><path class="cls-1" d="M-6,164.85c-4.38,19.52-1.75,32,8.85,49,7,19.45,18.11,30.52,34.07,44.4,14.52,17.8,33,32.31,51.89,46.89,16.2,16.77,34.54,31.38,53.77,45.59,20.73,20.64,43.87,39.38,68.07,56.69C250.18,444,298.2,472,346,495c15.18,6,29.79,7.47,44.83,10,31.73,6.91,47.77,8.42,78.07-5.37,31.91-7.86,36.45-10.41,59.63-34.82,33.27-24.94,48.67-50.64,63-91.1C610.38,338.85,617.71,306,619.34,266c6.92-37.36,4.35-74.79-3.73-112.2C609.09,97.24,584.75,44.92,561-6,524.52-72.74,433.68-226.44,344.22-177.59c-17.42,6.78-30.66,18.53-44.18,33-7.65,7.43-15.35,13.85-23.09,22.22C240.51-81,203.18-36.66,160.94-.82A476.3,476.3,0,0,1,92.76,52.57C73.46,67.81,53.6,82.07,35,96.54c-8.25,7.29-14,15.39-20.18,23.22C2.37,133.46-5.95,146.22-6,164.85Z"/><path class="cls-1" d="M43.3,169.55c-4,16.68-2.62,26.52,6.4,41.29,5.3,17.44,13.18,25.41,27,37.78,5.92,6.29,10.18,13.33,17.22,19.83S111,281.1,119,288.09c7,5.94,12.08,12.79,19.62,19,7.9,6.49,18.26,12.28,26.68,19,8.94,7.11,16.06,15.26,25.54,22.51,10.21,7.8,22.63,14.5,33.36,22.11,11.71,8.29,22.09,17.78,34.33,25.43a808.26,808.26,0,0,0,80,38.18c12.86,4,25.25,3.95,37.93,5.17,12,1.15,25.09,4,36.85,2.57,10.83-1.35,19.84-7,30.21-10.85,9.5-3.56,20.76-5.15,29.8-10.81,8.29-5.19,14.16-14.22,21.95-21.22,10.58-9.72,23-18.55,32.09-31.79,8.32-12.11,13.38-28.17,19.91-42.69,6.18-13.7,13.94-25.93,18.11-41.26,4-14.8,4.58-32.45,6.6-48.29,2-15.53,5.37-29.46,5.23-45.66s-3.6-34.13-5.69-50.53c-2-32.46-11-63.55-23.33-93.07C533.15-1,506-44.16,477.12-82.23c-9.33-11.13-19.32-19.67-28.84-27.72-17.11-15.82-34.54-27.31-56.5-29.23-8.45-1.43-16.86-3.16-25-2-15.43,3.92-30.56,10.62-45.17,18.48-14.16,11.1-29.23,24.08-43.61,36.17-7.53,7.19-15.13,16.37-22.83,24.17-17.53,16-33.89,33.75-50.11,51.3-27.79,25.49-53.91,53.19-83,76.21-21.13,21.8-46.58,39.36-61.85,65C50.51,142.15,43,154.18,43.3,169.55Z"/><path class="cls-1" d="M89.94,167.92c-.78,6.26-2.87,13-2,19,.85,5.79,4.7,10.77,7.1,16.41,2.34,5.48,3.14,11.7,6.78,17.1s10,9.74,14.72,15.06,7.78,11.56,13.44,17,14.07,10.07,20.54,15.73c5.83,4.93,9.78,10.94,16.08,16,6.58,5.25,15.47,9.45,22.52,14.73,7.44,5.56,13.17,12.32,21.09,17.82,8.47,5.89,19,10.34,27.87,15.88,9.64,6,18,13.31,28.09,18.6,10.94,5.77,23,9,34.17,13.15,10.28,3.82,20.35,9.16,30.79,11.34s20.45.84,30.72.93c9.85.09,20.61,1.93,30.22.06,9-1.76,16.3-7.19,24.86-10.88,23.81-7.59,26.66-9.34,43.15-28.78,24.16-19.35,30.46-30,41.67-59.49,15.41-26.32,18.66-41.06,21.18-71.72,1.89-12.55,5.32-23.93,5.54-37.1s-2.62-27.59-4-40.95-1.32-25.3-4.17-37.91c-3-13.35-8.7-26.73-13-39.05a218.57,218.57,0,0,0-34.15-70.38c-11.64-20-25.55-37.48-44.11-49.37-7.84-6.05-15.33-12.51-23.23-16a152.2,152.2,0,0,0-44.75-7.16A297.38,297.38,0,0,0,320-78c-12.81,8.85-26.52,18.8-39.75,28-6.7,5.55-13.38,13-20.1,19.11C244.78-18.92,231-5,217.72,9.35A649.06,649.06,0,0,0,171.38,55C150.65,73,133.27,94.21,115.13,113.8c-5.13,6.48-8.13,12.92-12,19.33C95.45,144,89.28,154.63,89.94,167.92Z"/><path class="cls-1" d="M135.17,161.79c-2.78,12.65-2.64,18.94,4.46,30.1,3.07,13.82,6.46,17.34,17.06,26.85,8.38,14,13.15,17,26.58,26.3,11,12.93,15.82,15.56,30.62,23.74,5.87,4.15,10.12,9.64,16.35,13.6,6.65,4.22,15.12,6.73,22.07,10.51,7.51,4.08,13.82,9.61,21.58,13,8.48,3.68,17.93,4.8,26.42,7.06,7.84,2.08,15.52,5.77,23.54,6.54s15.56-1.62,23.43-2.4c19.38,0,26.14-1.17,42.46-12.43,18.91-6.93,21.39-8.63,33.95-24.85,6.37-6.39,14.44-11.51,20-19.45,5.22-7.49,7.81-17.51,12-26.19,4.08-8.36,9.88-15.56,12.82-24.83,2.88-9.06,2.92-19.9,4.64-29.59s5.06-18.29,5.49-28.31-1.95-20.82-2.72-30.95c-.78-10.3-.14-20-2.17-29.69-2.12-10.24-6.76-20-9.91-29.38C459.08,42,450.77,24.47,438.41,9.72,433.24,2.2,428.87-5.9,423.1-11.79s-12.5-9.1-18.64-13.12c-5.9-4-11.3-9-17.33-11.29s-12.28-1.85-18.3-2.67c-5.87-.8-11.48-2.9-17.36-2.4s-11.68,3.54-17.5,5.15-11.3,1.74-17,4.28c-10.7,6.55-22.12,13.39-33.49,19.38C272.82-3.32,261.56,5.56,250,13.8c-16.91,17.36-36.68,32.26-52.17,51a188,188,0,0,0-29.88,33.18c-9.56,10.36-18,21-22.92,33.7C138.92,141.23,134,150.44,135.17,161.79Z"/><path class="cls-1" d="M180,152.76c-2.17,10.92-2.5,14.87,4,24.31,2.34,11.87,3.9,13.37,13.17,21.23,6.19,11.86,8.54,12.85,19.73,20,8.06,10.63,10.41,11.4,22.31,17.07,10.14,10.09,14,11.63,27.41,16,5.35,2.59,9.5,6.75,14.91,8.66,6.05,2.15,12.87,1.73,18.74,2.64,5.42.84,10.81,3.34,16.49,3.11,5.49-.22,10.65-3.22,16.17-4.54,5.22-1.26,11.33-.75,16.5-2.92,4.87-2,8.43-6.64,13.11-9.54C367,246,372.79,244.94,377,241.5c4-3.27,6.13-8.75,9.84-12.65,4.49-4.75,10.63-8.24,14.59-13.87,3.78-5.39,5.27-12.69,8.41-18.76s7.88-10.85,10.18-17.3,2-14,3.47-20.73,4.64-12.83,5.17-19.77-1.53-14.3-1.91-21.27c-.4-7.28.74-14.39-.62-21.21-1.42-7.11-5.19-13.43-7.41-19.83-3.36-14.59-7.64-24-18.11-34.29-7-11.47-12.23-17.55-24.9-21.78-9.19-7-13.43-8.65-24.92-7.8-10.36-3.32-15.39-2.39-25.41,1.52-10.32,0-16.78,3.13-25.42,8.67-9.46,2.17-17.07,7.18-24.52,13.48-4.16,2.66-8.38,3.81-12.46,6.79A212,212,0,0,1,238,63c-11.17,13-25.76,23.33-34.46,38.2-7.46,8.08-13.68,16.48-16.72,26.85C182,136.16,178.34,143.31,180,152.76Z"/><path class="cls-1" d="M225.05,142.27c-1.63,9-2.65,9.78,3.56,17.2,1.88,9.91,1.22,8.63,9.41,14.68,4.38,9.74,3.88,8.3,13.1,13.38,2.12,1.86,2.57,5.29,4.81,7.05,10.79,4.51,7.14,1.74,15,10.36,2.84,1.7,7.14,1.45,9.94,2.8,3.18,1.55,5.08,4.77,8.12,5.76,3.71,1.22,8-.09,11.25,0,3,.12,6.28,1.87,9.77,1,3.07-.73,5.71-3.88,9-5.34,9.85-2.07,10.33-2.51,16.9-10.39,9.37-4.43,9.3-4.39,14.41-13.58,9.19-7,10.82-9.27,14.57-20.33,7.32-8.52,8.73-11.71,9.73-22.9,4.82-9.71,5.58-13.76,3.19-24.34,1.41-10.47.86-15.51-4.88-24.24-2.28-10.13-3.14-13.21-11.94-18.94-2.49-2.57-4-6.61-6.84-8.43s-6.82-1.19-10-2.21c-2.39-.77-4-3.43-6.4-3.8s-5.47,1.54-7.91,1.51-4.56-2-7-1.73c-8.81,3.37-5.35,3.57-15.16,3.13-7.73,4.12-5.75,4.5-14.87,4.95-7,4.67-6.13,4.87-14.7,6.52-2.41,1.26-4.76,4.38-7.22,5.85s-5.1,1.39-7.53,3.1c-4.44,5.21-10.27,9.34-15.85,13.27a181.91,181.91,0,0,1-14.66,18.24c-1.95,3.12-2,6.39-3.45,9.62C225.44,131.33,223,134.19,225.05,142.27Z"/><path class="cls-1" d="M311,105.08c-.72.15-1.4-1.64-2.06-1.37s-1.08,2.51-1.73,2.9-2-.81-2.59-.33-.39,2.54-.94,3.08c-2.65.78-2.73-.22-4.09,2.3,0,0,.57-.71-.38-1.4-.45-.34-2.35,1.19-3,.85s.06-2.53-.59-2.75-2.24,1.66-2.93,1.55-.6-2.22-1.32-2.19-1.88,2.17-2.64,2.35c-6.1-1-5.06.16-8.83,4.27-1.51,1.17-3.85,1.3-5,2.75s-.8,3.67-1.65,5.33-3.24,3.22-3.68,4.92,1.33,2.66,1.31,4.27c0,1.44-1.63,3.95-1,5.49.5,1.25,3.07,1.15,3.91,2.46.76,1.16-.17,3.85.78,5s3.6.61,4.62,1.72.34,3.79,1.4,4.85,3.84.45,4.94,1.48c.81.75,0,3.18.75,3.9s3.3-.21,4.11.5.09,3.22.9,3.91,3.39-.2,4.19.47c1,.83.28,3.31,1,3.93,1.67,1.37,2.64.88,2.64.88a6.31,6.31,0,0,0,4.24-1.54c.76-.76.31-3,1.31-4,5.35-2,3.4.05,5.11-5.48.81-.91,3.09-.65,3.93-1.63,1-6.49,1.63-3.74,5.91-7.32,1.12-1.49.63-4,1.67-5.56,5.24-4.22,4.81-2.44,5.5-9.35.84-1.75,3.39-3,3.87-4.6.56-1.86-1.12-3.49-1.14-5,0-1.94,1.72-4.51,1.28-6.23s-3-2.18-3.79-3.62-.25-4.36-1.43-5.44-3.78,0-5.25-.67C315.71,100.85,316.64,102.62,311,105.08Z"/><path class="cls-1" d="M280.93,104.25c-6.38.82-6.26,1.84-9.8,6.81-5.17,3.2-6.12,3.76-7.34,9.86-.92,1.82-3.45,3.7-4,5.6-.75,2.54,3,5-1.13,5.84,0,.06,2-.54,2-.48s-2,.81-2,.88,2-.59,2-.52-2,.85-2,.91,2-.62,2-.55c0,1.64-1.75,4.29-1.26,6,.42,1.47,2.95,1.69,3.7,3.19s-.4,4.18.47,5.55,3.58,1.17,4.54,2.48c1.76,7.39-.88,4.3,6,7.7.67.81-.37,3.18.4,3.95s3.25-.19,4.09.51.1,3.11,1,3.77,3.37-.48,4.31.14.44,3.06,1.41,3.64,3.45-.66,4.45-.11c.68.38,0,2.62.61,3s2.76-1.14,3.42-.79.07,2.64.73,3,2.76-1.22,3.43-.92.39,2.65,1.05,2.87c1.07.36,2.44-1.54,3-1.66,6.15.44,5.43-1.08,8.65-6.06,6.51-2.92,5-1.44,7.75-8.13,6.16-3.78,4.84-1.81,6.86-8.88,5.69-4.26,4.52-1.88,5.87-9.07.93-1.57,3.58-2.32,4.39-3.89s-.23-3.95.43-5.55,3.23-3,3.65-4.63c.72-2.54-3.45-5.34.85-5.6,0-.06-2,.21-2,.15s2.05-.49,2.05-.55-2,.25-2,.19,2-.53,2-.59-2,.28-2,.22c0-.6,2-1.67,2-2.25s-2.12-.55-2.2-1.12,1.84-1.88,1.73-2.44-2.2-.24-2.34-.78,1.64-2.08,1.47-2.6-2.24.06-2.43-.44c-.4-1,1-3.27.44-4.17s-2.77-.27-3.4-1,.17-3.23-.58-3.87-2.85.69-3.7.22-.72-2.89-1.66-3.17-2.93,1.6-3.95,1.52c-.7-.72-.21-3.33-1-3.92s-2.88.81-3.75.37-.74-2.83-1.69-3.11-2.75,1.63-3.77,1.54S312,95,310.91,95.1s-2.38,2.39-3.48,2.71c-.47.13-.92-1.7-1.37-1.53s-.77,2.32-1.21,2.53-1.21-1.4-1.64-1.16-.58,2.33-1,2.57-1.25-1.31-1.67-1.09-.94,2.4-1.34,2.5c-.82.19-1.4-1.84-2.61-1.85-.89,0-2.57,2-3.65,2s-1.32-2-2.38-2-2.49,2.25-3.56,2.45-1.78-1.56-2.85-1.21S282,103.73,280.93,104.25Z"/><path class="cls-1" d="M273.14,98.8c-6.27,2-7.36,3.63-10.67,9.14-1.68,1.85-4.44,3-5.84,5s-1.13,4.47-2.2,6.59-3.66,4.19-4.36,6.32c-1,2.56,2.46,5.86-1.58,6.53,0,.08,1.93-.44,1.92-.37s-2,.76-2,.83,1.94-.48,1.93-.4-2,.78-2,.86,1.95-.51,1.94-.44c-1.7,6.43-3.46,5.52,1.68,10.74.61,1.64-.6,4.58.21,6.19s3.56,1.77,4.48,3.3c1.48,7.87-1,4.78,5.89,9.15,1.18,6.84-.43,4.35,6,6.32,3,6.67,1,3.94,7.71,5.18,1.39.8,1.39,3.42,2.85,4.16s4.36-.39,5.87.3c1,.47.71,2.83,1.69,3.27s3.34-1,4.34-.62.92,2.83,1.93,3.21,3.35-1.18,4.37-.86c1.23.38,1.42,2.73,2.46,2.93,1.46.28,3.09-1.74,4.06-1.94,13.6.13,4.66-4.26,19.57-10.72,1.74-1.75,2-5,3.65-7,7-5,6.34-3.86,8.68-12.21,5.48-4.74,4.48-2.16,5.27-9.61.82-1.66,3.46-2.61,4.16-4.27s-.57-4,0-5.68,3.05-3.2,3.4-4.91-1.44-3.56-1.36-5.26c0-.59,2.09-1.45,2.09-2s-2.07-.79-2.09-1.37,2-1.64,1.92-2.21-2.13-.57-2.2-1.14,1.85-1.8,1.75-2.36-2.18-.35-2.29-.9c-.23-1.12,1.42-3.13,1.08-4.17s-2.6-1-3-2,.81-3.28.26-4.16-2.79-.19-3.45-1c-1.14-5,1-3.94-4.64-3.73-1.42-6.67.64-6-6.27-8.51-1.26-1.17-1.31-4.06-2.76-4.92s-4,.46-5.63-.06-2.43-2.94-4.15-3.09-4,2-5.78,2.24c-.77.09-1.23-1.83-2-1.65s-1.64,2.45-2.38,2.7-1.55-1.42-2.29-1.12-1.46,2.59-2.19,2.91-1.63-1.25-2.34-1-1.65,2.6-2.35,2.78c-1.33.36-2.49-1.34-4-1-1.35.3-3.09,2.63-4.57,3-5.88-1.74-3.83-.45-8.44,2.59C275.65,94,277,95,273.14,98.8Z"/><path class="cls-1" d="M265.44,93.73c-5.82,2.66-8.58,5.68-11.5,11.27-1.79,2.16-4.71,3.73-6.22,6s-1.36,4.89-2.54,7.26-3.9,4.7-4.74,7c-1.25,2.62,2,6.63-2,7.23,0,.09,1.9-.37,1.88-.28s-2,.72-2,.8,1.9-.39,1.89-.31-2,.74-2,.83,1.92-.42,1.9-.34c-.35,2.17-2.36,5.14-2.17,7.33.18,2,2.54,2.91,3.09,4.9s-.8,5-.06,6.81,3.51,2.32,4.38,4.08-.09,4.91.84,6.59c1,1.85,4,2.26,4.92,3.9,1.43,7.58.44,5.5,7.51,8.15,4.05,7.19,2.45,4.75,10.13,6.44,1.84,1,2.33,3.77,4.29,4.69s5.33-.08,7.35.76c1.34.56,1.41,3,2.73,3.54s4-.87,5.32-.38,1.71,3,3.08,3.43c1.52.5,4-1.09,5.4-.74,5.05,4,3,3.72,8.91.93,2.8-.51,6.24.43,9.37-1.11,2.7-1.33,4.48-4.83,7.22-6.84,8.68-3.81,9.27-4.46,13.67-13,7.62-5.9,8-6.23,10.36-15.65,5.49-5.78,4.82-3.57,5.09-11.69,4.62-6.38,4.37-4.1,3.45-12.13,3.47-6.77,3.79-4.71,1.49-12.27,0-.52,2.08-1.25,2.08-1.77s-2.06-.74-2.07-1.25,2-1.39,2-1.9-2.1-.58-2.14-1.08,1.92-1.52,1.86-2-2.13-.42-2.2-.91c-.14-1,1.66-2.66,1.45-3.6s-2.39-1-2.66-1.92,1.29-2.86.94-3.72-2.54-.5-3-1.3.82-3,.33-3.73-2.75-.08-3.32-.72c-1.4-8.45-.31-8.89-7.89-13.72-1.66-1.93-2.11-5.42-4.07-6.88s-5.15-.73-7.34-1.68-3.56-3.69-5.94-4.08-5.35,1.6-7.87,1.76c-1.06.07-1.72-1.88-2.74-1.68s-2.33,2.53-3.37,2.83-2.05-1.34-3.08-1-2.16,2.79-3.19,3.21-2.15-1.08-3.16-.68-2.27,2.81-3.26,3.11c-7.13-.84-5.21,0-10.92,3.59-6.9-.17-5.79.8-10.87,4.86C269.57,87.83,269.65,89,265.44,93.73Z"/><path class="cls-1" d="M239.69,171.37c1.64,8.42,1.22,6.62,8.93,9.91,5,7.64,4.06,5.6,12.57,7.69,2.29,1.17,3.26,4.12,5.71,5.21s6.33.28,8.87,1.29c5.42,5.73,2.54,3.55,10.08,3.71,5.87,5.31,3,3.66,10.67,3.12,2,.46,3.18,2.9,5,3.11,2.26.27,4.58-1.83,6.32-2.11,3.52-.55,7.62.38,11.39-1.24,3.39-1.47,5.88-5.24,9.23-7.5,3.1-2.1,7.45-2.81,10.38-5.48s3.93-6.84,6.42-9.83,6.45-4.79,8.49-8.05c3.61-8.62,1.28-9.33,8.23-17.3.81-2.36-.52-5.3.1-7.68,4.26-7.48,4.13-5.76,2.69-14.37,3.18-7.89,3.34-6.06,1-14.45,2.21-5.29,3.28-2.38-.13-7.8-.08-1.31,1.81-3,1.66-4.33s-2.31-2-2.52-3.26,1.48-3.23,1.19-4.46-2.52-1.59-2.88-2.77c-1.3-9.86-1.79-12.84-9.63-19.23-2.09-2.73-3-6.88-5.48-9s-6.25-1.94-9-3.33-4.76-4.44-7.79-5.08-6.66,1.23-9.88,1.36c-1.34,0-2.26-1.89-3.56-1.67s-2.94,2.6-4.27,3-2.6-1.2-3.91-.72c-4.62,3.31-2,4-8.12,3.2-5.58,5.3-4.06,3-10.66,4-6.66,4.59-5.25,4.65-13.47,6.25-2.23,1.22-4.32,4.27-6.53,5.68s-4.78,1.38-6.95,3A62.19,62.19,0,0,1,250.27,94.6c-2.21,2.39-3.23,5.71-5.16,8.23-4.86,4.41-8.39,9-9.67,15.5-1.29,2.64-4.15,5.43-5.1,8.09s.2,4.75-.35,7.34c-.5,2.4-2.66,5.55-2.6,8,0,2.22,2.31,3.45,2.76,5.66s-1,5.36-.33,7.41,3.42,2.84,4.25,4.8C235.08,168.25,233,165.45,239.69,171.37Z"/><path class="cls-1" d="M231.88,180.66c2.22,8.79,2.2,7.19,10.33,10.62,5.73,7.72,5.41,6.06,14.44,8.15,7.66,6.74,7.05,5.43,16.85,6.64,1.9.65,2.63,3.21,4.53,3.81,8.61,0,4.87-1.8,12,3.35,9.4-.69,4.43-2.07,12.9,2.12,2.42.16,4.87-2,6.87-2.29,4.25-.57,9,.36,13.47-1.35,4.09-1.59,7.25-5.61,11.22-8.12,3.73-2.36,8.66-3.31,12.12-6.35s4.91-7.73,7.82-11.21,7.27-5.77,9.59-9.61,2.39-8.87,4.08-13c1.08-2.69,4.07-4.64,4.89-7.37.08-11-.74-6.95,3.59-17-1.58-10.3-1.67-7.18,1.18-17.12-1-6.62-3.72-6.12-.32-13.08-.11-1.53-2.26-2.66-2.43-4.14s1.63-3.47,1.39-4.93-2.48-2.32-2.78-3.75,1.26-3.61.88-5c-5.28-3.67-3.77-11.19-6.47-16.26-2-3.7-5.78-5.66-8.22-8.73-5.07-9-6.39-11.24-16.65-13.8C335.09,46,333.42,46,323.4,48c-1.49,0-2.54-1.92-4-1.7s-3.3,2.58-4.78,2.94-2.83-1.23-4.31-.76c-5.23,3.41-2.41,4-9.07,3.28-9.91,8.81-6.76-.89-20.15,10.61-7.3,1.62-10.28,4.37-15.49,9.55-6.44,2.59-11,6.93-15.05,12.53-2.76,2.66-6.19,4.35-8.65,7.16s-3.88,6.61-6.12,9.62c-5.38,5.37-9.47,11-11.13,18.37-4.13,6.39-6.73,10.06-6,17.92-2.43,7.71-3.93,8.31.73,15.67.59,2.42-.64,6,.24,8.32s3.89,3.41,5,5.64C226.33,176.75,224.63,174.16,231.88,180.66Z"/><path class="cls-1" d="M296,44.16c-8.08,1-11.55,3.67-17.7,8.73-7.24,2.12-12.56,6.51-17.68,12-7.16,3.6-12.49,8.83-17.23,15.27a57.94,57.94,0,0,0-16.8,19.67c-5.92,6.28-10.58,12.81-12.65,21.11-1.63,3.5-4.79,7.28-5.95,10.77-1.11,3.33-.07,6.13-.65,9.47-.52,3.09-2.59,7-2.32,10.15.24,2.84,2.81,4.62,3.6,7.45.54,9.75-.47,8.46,6.49,15.66,2.45,10.44,1.2,8.24,9,15.27,1.39,2.18,1.18,5.61,3.23,7.57s6,2.11,8.47,3.8c6.39,7.8,6.78,6.56,16.33,8.69,8.28,6.57,8.89,5.83,19.14,6.89,7,5.29,4.41,3.71,12.86,3.45,7.43,4.67,5.05,3.65,13.55,2.5,7.82,3.48,6.15,3.37,14.11.37,12.77.55,18.77-1.79,28.81-10.08,12.55-5.08,16.06-8,23.11-19.76,18.37-15.62,8.7-16.77,20.35-34.63.84-3.18-.59-6.91,0-10.11s3.12-6.08,3.42-9.35-1.64-6.6-1.54-9.87,2.18-6.44,2.09-9.7c-1.19-7.06-4-7.29-.95-14.87-3.8-6.74-2.76-2.94-1.58-10.22-4.46-6.29-2.89-2.55-2.48-9.82-10-11.06.3-13.51-16.92-28.06C360.49,47.12,358,44,347.28,41.21c-3.44-1.69-6.19-5-9.91-5.8-6.3-.94-9.94,2.73-16.3-.73-1.64.21-3.63,2.56-5.27,2.91s-3.07-1.25-4.71-.77-3.51,3-5.16,3.58C299.07,39.74,301.2,40.61,296,44.16Z"/><path class="cls-1" d="M295.41,33c-8.19,1.4-13.62,5.21-19.8,10.61-3.4,2.14-6.86,2.74-10.11,5.14a130.7,130.7,0,0,1-20,16.6c-3.33,3.11-6,7.47-9.1,10.73a75,75,0,0,0-18.88,22.48c-6.48,7.14-11.71,14.55-14.22,23.73-1.81,3.9-5.14,8.11-6.41,12-1.22,3.68-.23,6.78-.83,10.47-.53,3.4-2.56,7.68-2.2,11.12.34,3.11,3,5.17,4,8.29.92,10.42.39,9.67,7.76,17.29,3.14,11.16,2.42,9.49,10.66,17,1.59,2.33,1.57,5.88,3.83,8s6.5,2.42,9.25,4.23,3.94,5.07,7,6.65c11.84,2.87,9.85,1.68,20.34,8.39,8.36,1.72,10.87-.5,18.37,5.27,9.73-.33,6.18-1.56,14.9,3,10.21-1.25,6.06-2,15.69,1.49,2.76.07,5.52-2.18,8-2.41,5.73-.49,12,.48,17.78-1.37,5.51-1.76,10-6.22,15.24-9.18,14.05-5.58,18.23-9,26.3-21.92,19.64-17.26,10.25-19.13,22.1-39.35.85-3.59-.62-7.78-.09-11.4s3-6.93,3.26-10.62-1.82-7.47-1.83-11.16,2-7.27,1.73-11c-1.37-7.38-4.28-8.71-1.6-16.71-4-7.2-3-3.5-2.14-11.4-4.62-6.69-3.16-3.15-3.08-10.93-10.81-12.8-.84-15.45-19.22-31.2-3.13-3.73-5.26-8.76-8.83-11.61s-8.22-3.25-12.09-5.12-6.9-5.24-11-6.12c-6.53-1-11.1,2.53-17.68-.87-1.77.2-3.92,2.54-5.72,2.89s-3.3-1.25-5.1-.76-3.82,3-5.63,3.64C299.15,28.31,300.79,29.28,295.41,33Z"/><path class="cls-1" d="M208.53,206.93c6.19,12.31,13.07,14.82,26,19.42,5.52,2.64,10.16,6.78,16.49,8.91s14.27,2.14,21.06,3.64c15.7,5.66,27.66,7.21,43.63,4.26,15.74.94,24.33-1.52,37.31-10.9,5.65-3,12.43-4.66,17.49-8.78s7.87-10.32,12-15.25,9.67-8.67,12.8-14.27,3.67-12.74,5.7-18.87c1.27-3.92,4.47-7,5.31-11s-.67-8.68-.18-12.75,3-7.78,3.1-11.92-2-8.37-2.14-12.51,1.74-8.12,1.37-12.25c-5.19-14.55-4-32-9.36-45.73-4-10.41-10.64-18.5-16.47-26.37s-11.19-16-18.31-20.83C352.68,15.09,332.2,10.84,318.72,12c-14.85,4.39-32.3,13.43-46.43,21.3-7.9,5.43-15.24,12.95-22.45,19.26A186.15,186.15,0,0,0,207.51,99c-11.75,15.14-22,30.57-22.72,49.24-2.61,9.5-3.25,12.5,2.34,21.13,1.25,10.92,1.35,11,9,18.88C199.85,199.79,200,199.15,208.53,206.93Z"/><path class="cls-1" d="M295.55,11.13C284.82,14.41,276.24,20.7,268,28.26c-4.77,3.5-9.59,5.63-14.11,9.46C240.44,52,224.15,64,213.11,80.21c-1.36,1.6-3.6,2.49-4.9,4.09s-1.61,3.85-2.87,5.47-3.62,2.79-4.84,4.43c-1.7,4.75-3.47,6.69-7.06,10-1.11,5.46-5.47,9.53-8.27,14-1.48,2.88-1.09,5.46-2.24,8.32s-3.92,6-4.79,8.78c-.08,9.32-.48,7.57-3.64,15.84,3.61,15.27-5.41,13.79,5.39,28.54,2.13,11.33,2.9,11.8,11.41,19.55,5,11.64,6.08,11.86,15.76,19.23,3.41,3.62,5.56,8.41,10.18,11.63s11.34,4.63,16.81,7.41,9.94,7.09,16.09,9.47c6.32,2.45,14.05,2.78,20.68,4.63,15.43,6.53,26.69,8.65,43,6.75,16.49,2,26,.15,40.31-8.76,16.95-5.49,21.82-8.75,32.58-23.2,4.6-4.8,10.67-8.34,14.4-13.94s4.87-12.94,7.59-19.12c2-4.61,5.86-8.14,7.36-12.94s.59-10.65,1.65-15.62,4.05-9.22,4.63-14.34-1.23-10.63-1.06-15.8,2.27-9.89,2-15.08c-.24-5-2.73-10.19-3.3-15.32.28-14.86-2-25.2-8.85-38.13-2.2-6.06-3-12.77-5.85-18.18s-7.42-9.26-10.72-13.9S389,23.63,385.28,19.88s-8.64-5.2-12.69-7.95c-8.5-8-13.27-10.52-25-10.53-10.17-4-15.69-3.36-25.93.42C311.43,1.68,304.15,5.3,295.55,11.13Z"/><path class="cls-1" d="M296.25.31c-11.91,4.26-21.57,11.59-30.83,20.2-12,7.34-22,16.84-31.24,27.3a175,175,0,0,0-30.79,33.1,25.83,25.83,0,0,0-8.64,10.81c-3.62,3.14-6.49,6.38-7.92,11-3.63,3.71-5.79,5.68-6.93,10.94-2,3.36-5.27,6.87-6.76,10.15s-.88,5.94-1.89,9.11c-3.38,7.18-5.35,9.53-3.82,17.72-2.39,8.28-3.84,7.92-.84,16.66-1.38,10.9-1.07,13.72,6,22.54,1.74,3.5,1.73,8.11,4.05,11.52s7,5.56,9.76,8.86,3.87,8,7,11.21c3.36,3.45,8.82,5.51,12.26,8.69,3.82,3.41,6.22,8.09,10.91,11.26s11.49,4.7,16.87,7.59,9.74,7.38,15.73,10c6.21,2.7,13.87,3.36,20.34,5.53,15.31,7.39,25.62,9.92,42.37,9.12,17.43,3.09,27.52,2,43.38-6.36,6.67-2.51,14.41-3.49,20.57-7.29,5.94-3.67,10-10,15.19-14.82s11.68-8,16-13.57,6-13.06,9.32-19.28c10-13.34,10.85-16.76,13.14-33.25,6.59-14.41,7.05-20.07,6.13-35.9.45-6.07,2.77-11.76,2.63-18.06-.14-6.12-2.64-12.55-3.28-18.8-.78-7.69,0-15.28-1.68-22.56-1.71-7.48-5.69-14.22-8.11-21-3.6-15-8.52-25.88-18.76-37-3.75-5.36-6.52-11.73-10.75-16S386.06,3.33,381.5.2s-8.37-7.62-13.13-9.61-10-1.33-14.88-2.18-9.1-3.17-13.95-3-9.82,2.84-14.7,3.93-9.33.56-14.15,2.45S301.11-2.26,296.25.31Z"/><path class="cls-1" d="M157.48,176.27c-.75,11.48.1,14.5,7.78,23.39,3.89,12.19,6.14,13.55,16.24,21.33,7.56,12,10.86,13.57,22.85,20.75,9.86,11.08,14.73,13.11,28.43,18.82,12.78,10,19.73,12.74,35.43,16.87,15,8.17,24.77,11.09,41.75,11.33,8,1.06,16.09,3.58,24.12,3,7.83-.58,14.87-4.35,22.38-6.62,19.3-3.74,25.16-6.45,39-20.83,17-10.76,19.75-14.3,28.43-32.56,12.3-14.8,13.63-18.87,17.5-37.79,8.11-16.55,8.88-23.26,8.65-41.73,4-16.8,3.48-26.54-.12-43.52-.83-8.64-.16-17-2-25.18-1.89-8.46-6.12-16.28-8.82-24C435.07,43,429,29.78,418,17.36,410.75,4.23,403.37-5,390.18-11.54c-5-3.56-9.48-8.32-14.77-10.53s-10.94-1.68-16.3-2.58c-5.19-.86-10.07-3.16-15.37-2.87-5.13.27-10.6,3.07-15.9,4.37-5.14,1.26-10.15,1-15.37,3.22C302.19-13.66,290.8-7.44,280-1.59c-11.15,9.48-22.78,18.91-34.5,27.81-6,5.41-11.54,12.33-17.25,18a222.92,222.92,0,0,0-34.57,37.56,31.78,31.78,0,0,0-9.55,12c-1.55,2-4.23,3.75-5.69,5.78s-1.6,4.28-3,6.32c-3.68,3.89-6.29,6.59-7.41,12-4.79,6.66-8.65,13-8.56,21.19-3.2,8.09-4.92,10.34-2.61,19.16C154.93,167.34,153.78,167.16,157.48,176.27Z"/><path class="cls-1" d="M148.4,184.92c0,12.22,1.19,15.12,9.51,24.31,4.74,12.59,7.82,14.51,18.7,22.41,8.85,12.29,13.29,14.44,26.49,21.8,10.7,10.93,15,12.83,29,18.91,12.8,10.49,19.08,13.23,34.83,18.13,14.75,8.91,24,12.15,41.11,13.43,8.44,1.63,17,4.71,25.48,4.64s16-3.44,24.1-5.33c20.34-2.71,26.92-5.16,42.22-19.33,18.51-10.38,21.15-13.38,31.54-32.08,14.71-16.24,16.5-20.89,22-42.27,9.64-18.72,10.75-26.46,11.18-47.6,4.62-19.23,4.11-30.78.36-50.31-.9-9.58-.34-18.72-2.35-27.8-2.09-9.45-6.58-18.37-9.57-27C448.53,38.88,441.1,23,429.53,9.32,424.83,2.4,421-5.24,415.74-10.77S404.2-19.33,398.6-23.26,388-32.32,382.17-34.76c-5.65-2.37-11.87-2.06-17.7-3-5.64-.91-11-3.14-16.74-2.75-5.54.38-11.36,3.32-17.05,4.84-5.52,1.47-10.94,1.55-16.51,4s-11,7.14-16.59,10.43c-14.1,6.34-25.8,15.86-37,26.64-14.24,10-26.61,22.26-38.15,35.24-6.77,6.78-13.78,12.52-20,19.31-9,9.61-15.26,20.35-24.82,28.66-1.79,2.22-2.45,4.85-4.13,7.06-4.1,3.87-7.56,7.83-9.41,13.16-3.71,3.95-6.84,7.53-7.91,12.92-5.05,7.28-9,14.22-8.48,23-3,8.87-4.44,11.32-1.4,20.58C144.84,175.52,144,175.35,148.4,184.92Z"/><path class="cls-1" d="M133.69,180.53c-.88,12.76.38,17,8.54,27.15,4.55,13.49,8.14,16.19,19.33,25C170.77,246,176,249,189.84,257.48c11.33,12,16.64,14.75,31.42,22,5.94,3.82,10.35,9,16.62,12.67,6.63,3.84,14.94,5.89,21.83,9.29C276,312,286.93,316.38,306.09,319c8.91,2.14,17.82,5.75,26.83,6.21s17.17-2.48,25.8-3.92c21.5-1.64,28.5-3.58,45.48-17.49,19.93-9.8,22.59-12.44,34.56-31.44,17.21-17.46,19.59-22.9,26.68-46.63,11.2-21,12.6-29.71,13.68-53.56,5.21-21.71,4.7-35.1.75-57.21-1-10.52-.54-20.42-2.75-30.4-6.2-19.89-13.15-39.82-20.38-58.73a525.68,525.68,0,0,0-31.32-46.6c-5.74-6.13-12.55-9.8-18.69-14.18S395-44.75,388.63-47.44c-6.15-2.6-12.78-2.45-19.08-3.43-13.1-4-23.59-2.73-36.2,2.71-13.27,1.78-24.22,8-35.13,16.28C283.88-25,271.92-15,260.45-3.77,245.93,6.75,233.2,19.38,221.2,32.68a339.86,339.86,0,0,0-40.61,42.9c-7.4,5.5-11,14-18,19.78a49.83,49.83,0,0,1-10.26,13.75c-4.67,11.58-13.32,17.26-14.4,30.33-3.8,8.11-6,12.19-4.24,21.27C131.32,170.18,130.21,170.92,133.69,180.53Z"/><path class="cls-1" d="M177.36,68.67A50.17,50.17,0,0,0,165,82.33a46.29,46.29,0,0,0-11.78,13.86c-4.49,4.07-8.35,8.28-10.68,13.85-3,4.18-7.23,8.33-9.66,12.42a193.35,193.35,0,0,1-10.79,23.41c-1.2,3.62-.18,6.65-.91,10.23s-3.28,7.55-3.64,11,1.56,6,1.54,9.28c0,5.26-1.44,11.18-.17,16.24,1.23,4.9,5.25,8.87,7.67,13.67s3.07,10.26,6.44,14.87,9.3,8.08,13.55,12.63c9.71,14.32,15.61,18,30.1,27.55,5.14,4.11,8.48,9.43,14,13.55,5.76,4.28,13.65,7.29,19.8,11.49,6.45,4.42,11.29,10.15,18.13,14.4,7.25,4.51,16.3,7.36,23.88,11.45,17.86,12.12,30.53,17.83,51.67,22,20.44,7.74,34.15,10.07,55.64,5.44,22.41-.46,30.22-2,48.71-15.45,21.3-9.14,24-11.43,37.51-30.65,6.36-7.28,14.5-13.23,19.93-22.06,5.13-8.37,7.51-19.34,11.58-28.9,3.92-9.21,9.6-17.19,12.32-27.34,2.65-9.89,2.4-21.66,3.87-32.21,5.8-24.22,5.27-39.46,1.1-64.16-1.07-11.45-.78-22.09-3.18-33-2.53-11.42-7.59-22.58-11.19-33.06-3.76-10.94-6.41-21.69-11.2-31.48a489.66,489.66,0,0,0-34.43-51.77c-6.28-6.82-13.59-11.14-20.27-16s-12.95-10.68-19.8-13.62c-6.64-2.86-13.68-2.88-20.43-3.91C367.81-65,361.48-67,355-66.43c-12.46,3.07-25.17,7.15-37.69,11.49-12.06,7.88-25.11,16.41-37.59,24.39-6.51,5.06-12.93,12.07-19.37,17.64-14.8,11-27.88,24.07-40.33,37.71A415.65,415.65,0,0,0,177.36,68.67Z"/><path class="cls-1" d="M174.29,61.83a57,57,0,0,0-13.32,14A54,54,0,0,0,148,90c-4.94,4.16-9.15,8.6-12.11,14.29-7.17,7.46-13.4,15-17,24.46-2.25,3.93-6,8.08-7.81,11.94s-1.26,7-2.45,10.75-4.08,7.62-4.8,11.14.91,6.2.67,9.59c-.36,5.76-2.13,12.08-1,17.61,1,5.35,5,9.82,7.39,15s3.1,11,6.59,16,9.63,8.93,14.12,13.87,7.26,10.87,12.59,15.87,13.32,9.13,19.42,14.31c5.48,4.53,9.12,10.2,15,14.79,6.16,4.77,14.56,8.38,21.17,13.13,6.94,5,12.23,11.24,19.61,16.12,7.87,5.2,17.65,8.83,25.9,13.64,8.88,5.17,16.57,11.73,25.8,16.21,10,4.84,21,7.15,31.17,10.5,9.82,3.24,19.52,8,29.49,9.57s19.38-.33,29.11-.79c23.28.77,31.94-.26,51.92-13.22,22.49-8.33,25.43-10.47,40.37-29.77,7.37-7.67,16.49-14.09,22.81-23.72,5.92-9,9-21,13.71-31.51,4.51-10.07,10.74-18.87,13.89-30.07,3.06-10.88,3.09-23.88,4.79-35.54,1.66-11.46,4.93-21.86,5.12-33.89s-2.56-25.06-3.74-37.23c-1.19-12.36-1-23.73-3.66-35.49C503.29,75.2,497.93,62.93,494,51.51A188.46,188.46,0,0,0,462.69-13C452.1-31.35,439.35-47.24,422-57.81,409.07-69.27,395.58-76.62,378.76-77c-14.5-4-26.92-2.39-40.62,3.94-6.49,2.14-13,3.11-19.48,6.54-12.45,8.35-25.85,17.6-38.72,26.18C273.33-35,266.78-27.79,260.19-22c-15.06,11.54-28.48,25-41.37,39A514.17,514.17,0,0,0,174.29,61.83Z"/><path class="cls-1" d="M171.38,55a325.49,325.49,0,0,0-38,39.15c-6.13,6.78-13,13.08-18.21,19.62a439.86,439.86,0,0,0-22.88,37.74c-2.16,5.59-1.62,10.75-2.31,16.38-.78,6.26-2.87,13-2,19,.85,5.79,4.7,10.77,7.1,16.41,2.34,5.48,3.14,11.7,6.78,17.1s10,9.74,14.72,15.06c10.64,15.89,18.39,21.34,34,32.69,5.82,4.94,9.77,10.95,16.07,16,6.58,5.25,15.47,9.45,22.52,14.73,7.44,5.56,13.17,12.32,21.09,17.82,8.47,5.89,19,10.34,27.87,15.88,9.64,6,18,13.31,28.09,18.6,10.94,5.77,23,9,34.17,13.15,10.28,3.82,20.35,9.16,30.79,11.34s20.45.84,30.72.93c9.85.09,20.61,1.93,30.22.06,9-1.76,16.3-7.19,24.86-10.88,23.81-7.59,26.66-9.34,43.15-28.78,24.16-19.35,30.46-30,41.67-59.49,5.11-10.94,11.9-20.58,15.47-32.83,3.47-11.89,3.79-26.11,5.71-38.89,1.89-12.55,5.32-23.93,5.54-37.1s-2.62-27.59-4-40.95-1.32-25.3-4.17-37.91c-3-13.35-8.7-26.73-13-39.05a218.57,218.57,0,0,0-34.15-70.38c-6.87-10.52-13.08-21.08-20.58-29.47A235.65,235.65,0,0,0,405.89-85a152.2,152.2,0,0,0-44.75-7.16A297.38,297.38,0,0,0,320-78c-12.81,8.85-26.52,18.8-39.75,28-6.7,5.55-13.38,13-20.1,19.11C244.78-18.92,231-5,217.72,9.35A649.06,649.06,0,0,0,171.38,55Z"/><text class="cls-2" transform="translate(205 146.01)">http://♥♥♥</text><path class="cls-3" d="M142.61,116.55a23.84,23.84,0,0,1,8.55,8.61,23.61,23.61,0,0,1,0,23.6,23.79,23.79,0,0,1-8.55,8.62,23.31,23.31,0,0,1-23.54,0,23.79,23.79,0,0,1-8.55-8.62,23.61,23.61,0,0,1,0-23.6,23.84,23.84,0,0,1,8.55-8.61,23.31,23.31,0,0,1,23.54,0Zm-32.89,19.3h8a31.94,31.94,0,0,1,1.55-8.55,32.18,32.18,0,0,1-5.76-2.66A20.36,20.36,0,0,0,109.72,135.85Zm0,2.23a20.66,20.66,0,0,0,3.84,11.27,29.19,29.19,0,0,1,5.76-2.72,30.84,30.84,0,0,1-1.55-8.55Zm10.06-19.21a21.52,21.52,0,0,0-4.86,4,24.05,24.05,0,0,0,5.08,2.48,30.38,30.38,0,0,1,5.76-9A21.44,21.44,0,0,0,119.78,118.87ZM114.92,151a20.24,20.24,0,0,0,4.89,4.08,20.53,20.53,0,0,0,6,2.42,28.63,28.63,0,0,1-5.76-8.92A22.38,22.38,0,0,0,114.92,151Zm5.14-15.18h9.48v-6.51a35.14,35.14,0,0,1-8-1.36A30.09,30.09,0,0,0,120.06,135.85Zm0,2.23a28.93,28.93,0,0,0,1.43,7.87,34.8,34.8,0,0,1,8-1.31v-6.56Zm8.8-22.18a34.54,34.54,0,0,0-6.69,10.16,38.93,38.93,0,0,0,7.37,1.18v-11.4A2.54,2.54,0,0,0,128.86,115.9Zm-6.69,32a34.07,34.07,0,0,0,6.69,10.16l.68.06v-11.4A28.32,28.32,0,0,0,122.17,147.93ZM132,127.24a32.89,32.89,0,0,0,7.43-1.18,34.16,34.16,0,0,0-6.63-10.16,4.27,4.27,0,0,0-.8-.06Zm0,2.1v6.51h9.54A26.24,26.24,0,0,0,140.2,128,32.3,32.3,0,0,1,132,129.34Zm0,8.74v6.56A32,32,0,0,1,140.2,146a25.82,25.82,0,0,0,1.36-7.87Zm0,20.07.8-.06a35.82,35.82,0,0,0,6.63-10.16,28.49,28.49,0,0,0-7.43-1.18Zm9.6-32.77a22.46,22.46,0,0,0,5.08-2.48,20.78,20.78,0,0,0-10.78-6.5A30.37,30.37,0,0,1,141.62,125.38Zm-5.7,32.15a20,20,0,0,0,5.92-2.42A20.48,20.48,0,0,0,146.7,151a20.58,20.58,0,0,0-5.08-2.42A28.66,28.66,0,0,1,135.92,157.53Zm6.44-30.23a28.17,28.17,0,0,1,1.49,8.55H152a20,20,0,0,0-3.91-11.21A30.28,30.28,0,0,1,142.36,127.3Zm1.49,10.78a27.75,27.75,0,0,1-1.49,8.55,32.52,32.52,0,0,1,5.7,2.72A20.29,20.29,0,0,0,152,138.08Z"/><rect class="cls-4" x="180.37" y="106.52" width="344.94" height="60.7" rx="8.99"/></svg>