<svg id="Layer_1" data-name="Layer 1" xmlns="http://www.w3.org/2000/svg" viewBox="0 0 600 300"><defs><style>.cls-1,.cls-2{fill:none;}.cls-1{stroke:#feede8;stroke-miterlimit:10;}.cls-2{stroke:#231f20;stroke-linecap:round;stroke-linejoin:round;stroke-width:9px;}</style></defs><line class="cls-1" x1="7.66" y1="-6.37" x2="7.66" y2="307.5"/><line class="cls-1" x1="17.66" y1="-6.37" x2="17.66" y2="307.5"/><line class="cls-1" x1="27.66" y1="-6.37" x2="27.66" y2="307.5"/><line class="cls-1" x1="37.66" y1="-6.37" x2="37.66" y2="307.5"/><line class="cls-1" x1="47.66" y1="-6.37" x2="47.66" y2="307.5"/><line class="cls-1" x1="57.66" y1="-6.37" x2="57.66" y2="307.5"/><line class="cls-1" x1="67.66" y1="-6.37" x2="67.66" y2="307.5"/><line class="cls-1" x1="77.66" y1="-6.37" x2="77.66" y2="307.5"/><line class="cls-1" x1="87.66" y1="-6.37" x2="87.66" y2="307.5"/><line class="cls-1" x1="97.66" y1="-6.37" x2="97.66" y2="307.5"/><line class="cls-1" x1="107.66" y1="-6.37" x2="107.66" y2="307.5"/><line class="cls-1" x1="117.66" y1="-6.37" x2="117.66" y2="307.5"/><line class="cls-1" x1="127.66" y1="-6.37" x2="127.66" y2="307.5"/><line class="cls-1" x1="137.66" y1="-6.37" x2="137.66" y2="307.5"/><line class="cls-1" x1="147.66" y1="-6.37" x2="147.66" y2="307.5"/><line class="cls-1" x1="157.66" y1="-6.37" x2="157.66" y2="307.5"/><line class="cls-1" x1="167.66" y1="-6.37" x2="167.66" y2="307.5"/><line class="cls-1" x1="177.66" y1="-6.37" x2="177.66" y2="307.5"/><line class="cls-1" x1="187.66" y1="-6.37" x2="187.66" y2="307.5"/><line class="cls-1" x1="197.66" y1="-6.37" x2="197.66" y2="307.5"/><line class="cls-1" x1="207.66" y1="-6.37" x2="207.66" y2="307.5"/><line class="cls-1" x1="217.66" y1="-6.37" x2="217.66" y2="307.5"/><line class="cls-1" x1="227.66" y1="-6.37" x2="227.66" y2="307.5"/><line class="cls-1" x1="237.66" y1="-6.37" x2="237.66" y2="307.5"/><line class="cls-1" x1="247.66" y1="-6.37" x2="247.66" y2="307.5"/><line class="cls-1" x1="257.66" y1="-6.37" x2="257.66" y2="307.5"/><line class="cls-1" x1="267.66" y1="-6.37" x2="267.66" y2="307.5"/><line class="cls-1" x1="277.66" y1="-6.37" x2="277.66" y2="307.5"/><line class="cls-1" x1="287.66" y1="-6.37" x2="287.66" y2="307.5"/><line class="cls-1" x1="297.66" y1="-6.37" x2="297.66" y2="307.5"/><line class="cls-1" x1="307.66" y1="-6.37" x2="307.66" y2="307.5"/><line class="cls-1" x1="317.66" y1="-6.37" x2="317.66" y2="307.5"/><line class="cls-1" x1="327.66" y1="-6.37" x2="327.66" y2="307.5"/><line class="cls-1" x1="337.66" y1="-6.37" x2="337.66" y2="307.5"/><line class="cls-1" x1="347.66" y1="-6.37" x2="347.66" y2="307.5"/><line class="cls-1" x1="357.66" y1="-6.37" x2="357.66" y2="307.5"/><line class="cls-1" x1="367.66" y1="-6.37" x2="367.66" y2="307.5"/><line class="cls-1" x1="377.66" y1="-6.37" x2="377.66" y2="307.5"/><line class="cls-1" x1="387.66" y1="-6.37" x2="387.66" y2="307.5"/><line class="cls-1" x1="397.66" y1="-6.37" x2="397.66" y2="307.5"/><line class="cls-1" x1="407.66" y1="-6.37" x2="407.66" y2="307.5"/><line class="cls-1" x1="417.66" y1="-6.37" x2="417.66" y2="307.5"/><line class="cls-1" x1="427.66" y1="-6.37" x2="427.66" y2="307.5"/><line class="cls-1" x1="437.66" y1="-6.37" x2="437.66" y2="307.5"/><line class="cls-1" x1="447.66" y1="-6.37" x2="447.66" y2="307.5"/><line class="cls-1" x1="457.66" y1="-6.37" x2="457.66" y2="307.5"/><line class="cls-1" x1="467.66" y1="-6.37" x2="467.66" y2="307.5"/><line class="cls-1" x1="477.66" y1="-6.37" x2="477.66" y2="307.5"/><line class="cls-1" x1="487.66" y1="-6.37" x2="487.66" y2="307.5"/><line class="cls-1" x1="497.66" y1="-6.37" x2="497.66" y2="307.5"/><line class="cls-1" x1="507.66" y1="-6.37" x2="507.66" y2="307.5"/><line class="cls-1" x1="517.66" y1="-6.37" x2="517.66" y2="307.5"/><line class="cls-1" x1="527.66" y1="-6.37" x2="527.66" y2="307.5"/><line class="cls-1" x1="537.66" y1="-6.37" x2="537.66" y2="307.5"/><line class="cls-1" x1="547.66" y1="-6.37" x2="547.66" y2="307.5"/><line class="cls-1" x1="557.66" y1="-6.37" x2="557.66" y2="307.5"/><line class="cls-1" x1="567.66" y1="-6.37" x2="567.66" y2="307.5"/><line class="cls-1" x1="577.66" y1="-6.37" x2="577.66" y2="307.5"/><line class="cls-1" x1="587.66" y1="-6.37" x2="587.66" y2="307.5"/><line class="cls-1" x1="597.66" y1="-6.37" x2="597.66" y2="307.5"/><line class="cls-1" x1="2.66" y1="285.53" x2="2.66" y2="307.5"/><line class="cls-1" x1="12.66" y1="285.53" x2="12.66" y2="307.5"/><line class="cls-1" x1="22.66" y1="285.53" x2="22.66" y2="307.5"/><line class="cls-1" x1="32.66" y1="285.53" x2="32.66" y2="307.5"/><line class="cls-1" x1="42.66" y1="285.53" x2="42.66" y2="307.5"/><line class="cls-1" x1="52.66" y1="285.53" x2="52.66" y2="307.5"/><line class="cls-1" x1="62.66" y1="285.53" x2="62.66" y2="307.5"/><line class="cls-1" x1="72.66" y1="285.53" x2="72.66" y2="307.5"/><line class="cls-1" x1="82.66" y1="285.53" x2="82.66" y2="307.5"/><line class="cls-1" x1="92.66" y1="285.53" x2="92.66" y2="307.5"/><line class="cls-1" x1="102.66" y1="285.53" x2="102.66" y2="307.5"/><line class="cls-1" x1="112.66" y1="285.53" x2="112.66" y2="307.5"/><line class="cls-1" x1="122.66" y1="285.53" x2="122.66" y2="307.5"/><line class="cls-1" x1="132.66" y1="285.53" x2="132.66" y2="307.5"/><line class="cls-1" x1="142.66" y1="285.53" x2="142.66" y2="307.5"/><line class="cls-1" x1="152.66" y1="285.53" x2="152.66" y2="307.5"/><line class="cls-1" x1="162.66" y1="285.53" x2="162.66" y2="307.5"/><line class="cls-1" x1="172.66" y1="285.53" x2="172.66" y2="307.5"/><line class="cls-1" x1="182.66" y1="285.53" x2="182.66" y2="307.5"/><line class="cls-1" x1="192.66" y1="285.53" x2="192.66" y2="307.5"/><line class="cls-1" x1="202.66" y1="285.53" x2="202.66" y2="307.5"/><line class="cls-1" x1="212.66" y1="285.53" x2="212.66" y2="307.5"/><line class="cls-1" x1="222.66" y1="285.53" x2="222.66" y2="307.5"/><line class="cls-1" x1="232.66" y1="285.53" x2="232.66" y2="307.5"/><line class="cls-1" x1="242.66" y1="285.53" x2="242.66" y2="307.5"/><line class="cls-1" x1="252.66" y1="285.53" x2="252.66" y2="307.5"/><line class="cls-1" x1="262.66" y1="285.53" x2="262.66" y2="307.5"/><line class="cls-1" x1="272.66" y1="285.53" x2="272.66" y2="307.5"/><line class="cls-1" x1="282.66" y1="285.53" x2="282.66" y2="307.5"/><line class="cls-1" x1="292.66" y1="285.53" x2="292.66" y2="307.5"/><line class="cls-1" x1="302.66" y1="285.53" x2="302.66" y2="307.5"/><line class="cls-1" x1="312.66" y1="285.53" x2="312.66" y2="307.5"/><line class="cls-1" x1="322.66" y1="285.53" x2="322.66" y2="307.5"/><line class="cls-1" x1="332.66" y1="285.53" x2="332.66" y2="307.5"/><line class="cls-1" x1="342.66" y1="285.53" x2="342.66" y2="307.5"/><line class="cls-1" x1="352.66" y1="285.53" x2="352.66" y2="307.5"/><line class="cls-1" x1="362.66" y1="285.53" x2="362.66" y2="307.5"/><line class="cls-1" x1="372.66" y1="285.53" x2="372.66" y2="307.5"/><line class="cls-1" x1="382.66" y1="285.53" x2="382.66" y2="307.5"/><line class="cls-1" x1="392.66" y1="285.53" x2="392.66" y2="307.5"/><line class="cls-1" x1="402.66" y1="285.53" x2="402.66" y2="307.5"/><line class="cls-1" x1="412.66" y1="285.53" x2="412.66" y2="307.5"/><line class="cls-1" x1="422.66" y1="285.53" x2="422.66" y2="307.5"/><line class="cls-1" x1="432.66" y1="285.53" x2="432.66" y2="307.5"/><line class="cls-1" x1="442.66" y1="285.53" x2="442.66" y2="307.5"/><line class="cls-1" x1="452.66" y1="285.53" x2="452.66" y2="307.5"/><line class="cls-1" x1="462.66" y1="285.53" x2="462.66" y2="307.5"/><line class="cls-1" x1="472.66" y1="285.53" x2="472.66" y2="307.5"/><line class="cls-1" x1="482.66" y1="285.53" x2="482.66" y2="307.5"/><line class="cls-1" x1="492.66" y1="285.53" x2="492.66" y2="307.5"/><line class="cls-1" x1="502.66" y1="285.53" x2="502.66" y2="307.5"/><line class="cls-1" x1="512.66" y1="285.53" x2="512.66" y2="307.5"/><line class="cls-1" x1="522.66" y1="285.53" x2="522.66" y2="307.5"/><line class="cls-1" x1="532.66" y1="285.53" x2="532.66" y2="307.5"/><line class="cls-1" x1="542.66" y1="285.53" x2="542.66" y2="307.5"/><line class="cls-1" x1="552.66" y1="285.53" x2="552.66" y2="307.5"/><line class="cls-1" x1="562.66" y1="285.53" x2="562.66" y2="307.5"/><line class="cls-1" x1="572.66" y1="285.53" x2="572.66" y2="307.5"/><line class="cls-1" x1="582.66" y1="285.53" x2="582.66" y2="307.5"/><line class="cls-1" x1="592.66" y1="285.53" x2="592.66" y2="307.5"/><line class="cls-1" x1="2.66" y1="-10.99" x2="2.66" y2="10.99"/><line class="cls-1" x1="12.66" y1="-10.99" x2="12.66" y2="10.99"/><line class="cls-1" x1="22.66" y1="-10.99" x2="22.66" y2="10.99"/><line class="cls-1" x1="32.66" y1="-10.99" x2="32.66" y2="10.99"/><line class="cls-1" x1="42.66" y1="-10.99" x2="42.66" y2="10.99"/><line class="cls-1" x1="52.66" y1="-10.99" x2="52.66" y2="10.99"/><line class="cls-1" x1="62.66" y1="-10.99" x2="62.66" y2="10.99"/><line class="cls-1" x1="72.66" y1="-10.99" x2="72.66" y2="10.99"/><line class="cls-1" x1="82.66" y1="-10.99" x2="82.66" y2="10.99"/><line class="cls-1" x1="92.66" y1="-10.99" x2="92.66" y2="10.99"/><line class="cls-1" x1="102.66" y1="-10.99" x2="102.66" y2="10.99"/><line class="cls-1" x1="112.66" y1="-10.99" x2="112.66" y2="10.99"/><line class="cls-1" x1="122.66" y1="-10.99" x2="122.66" y2="10.99"/><line class="cls-1" x1="132.66" y1="-10.99" x2="132.66" y2="10.99"/><line class="cls-1" x1="142.66" y1="-10.99" x2="142.66" y2="10.99"/><line class="cls-1" x1="152.66" y1="-10.99" x2="152.66" y2="10.99"/><line class="cls-1" x1="162.66" y1="-10.99" x2="162.66" y2="10.99"/><line class="cls-1" x1="172.66" y1="-10.99" x2="172.66" y2="10.99"/><line class="cls-1" x1="182.66" y1="-10.99" x2="182.66" y2="10.99"/><line class="cls-1" x1="192.66" y1="-10.99" x2="192.66" y2="10.99"/><line class="cls-1" x1="202.66" y1="-10.99" x2="202.66" y2="10.99"/><line class="cls-1" x1="212.66" y1="-10.99" x2="212.66" y2="10.99"/><line class="cls-1" x1="222.66" y1="-10.99" x2="222.66" y2="10.99"/><line class="cls-1" x1="232.66" y1="-10.99" x2="232.66" y2="10.99"/><line class="cls-1" x1="242.66" y1="-10.99" x2="242.66" y2="10.99"/><line class="cls-1" x1="252.66" y1="-10.99" x2="252.66" y2="10.99"/><line class="cls-1" x1="262.66" y1="-10.99" x2="262.66" y2="10.99"/><line class="cls-1" x1="272.66" y1="-10.99" x2="272.66" y2="10.99"/><line class="cls-1" x1="282.66" y1="-10.99" x2="282.66" y2="10.99"/><line class="cls-1" x1="292.66" y1="-10.99" x2="292.66" y2="10.99"/><line class="cls-1" x1="302.66" y1="-10.99" x2="302.66" y2="10.99"/><line class="cls-1" x1="312.66" y1="-10.99" x2="312.66" y2="10.99"/><line class="cls-1" x1="322.66" y1="-10.99" x2="322.66" y2="10.99"/><line class="cls-1" x1="332.66" y1="-10.99" x2="332.66" y2="10.99"/><line class="cls-1" x1="342.66" y1="-10.99" x2="342.66" y2="10.99"/><line class="cls-1" x1="352.66" y1="-10.99" x2="352.66" y2="10.99"/><line class="cls-1" x1="362.66" y1="-10.99" x2="362.66" y2="10.99"/><line class="cls-1" x1="372.66" y1="-10.99" x2="372.66" y2="10.99"/><line class="cls-1" x1="382.66" y1="-10.99" x2="382.66" y2="10.99"/><line class="cls-1" x1="392.66" y1="-10.99" x2="392.66" y2="10.99"/><line class="cls-1" x1="402.66" y1="-10.99" x2="402.66" y2="10.99"/><line class="cls-1" x1="412.66" y1="-10.99" x2="412.66" y2="10.99"/><line class="cls-1" x1="422.66" y1="-10.99" x2="422.66" y2="10.99"/><line class="cls-1" x1="432.66" y1="-10.99" x2="432.66" y2="10.99"/><line class="cls-1" x1="442.66" y1="-10.99" x2="442.66" y2="10.99"/><line class="cls-1" x1="452.66" y1="-10.99" x2="452.66" y2="10.99"/><line class="cls-1" x1="462.66" y1="-10.99" x2="462.66" y2="10.99"/><line class="cls-1" x1="472.66" y1="-10.99" x2="472.66" y2="10.99"/><line class="cls-1" x1="482.66" y1="-10.99" x2="482.66" y2="10.99"/><line class="cls-1" x1="492.66" y1="-10.99" x2="492.66" y2="10.99"/><line class="cls-1" x1="502.66" y1="-10.99" x2="502.66" y2="10.99"/><line class="cls-1" x1="512.66" y1="-10.99" x2="512.66" y2="10.99"/><line class="cls-1" x1="522.66" y1="-10.99" x2="522.66" y2="10.99"/><line class="cls-1" x1="532.66" y1="-10.99" x2="532.66" y2="10.99"/><line class="cls-1" x1="542.66" y1="-10.99" x2="542.66" y2="10.99"/><line class="cls-1" x1="552.66" y1="-10.99" x2="552.66" y2="10.99"/><line class="cls-1" x1="562.66" y1="-10.99" x2="562.66" y2="10.99"/><line class="cls-1" x1="572.66" y1="-10.99" x2="572.66" y2="10.99"/><line class="cls-1" x1="582.66" y1="-10.99" x2="582.66" y2="10.99"/><line class="cls-1" x1="592.66" y1="-10.99" x2="592.66" y2="10.99"/><path class="cls-2" d="M368.55,118.92v-3.87a16,16,0,0,0-16.08-15.84h0a16,16,0,0,0-16.07,15.84v12a5.32,5.32,0,0,1-5.36,5.28h0a5.32,5.32,0,0,1-5.36-5.28v-9.77a6.56,6.56,0,0,0-6.61-6.51h0a6.56,6.56,0,0,0-6.61,6.51V248.23a6.56,6.56,0,0,1-6.61,6.51h0a6.56,6.56,0,0,1-6.61-6.51v-203a6,6,0,0,0-6.07-6h0a6,6,0,0,0-6.08,6V117.8a8,8,0,0,1-8,7.93h0a8,8,0,0,1-8-7.93V106.08a10.47,10.47,0,0,0-10.54-10.39h0a10.47,10.47,0,0,0-10.54,10.39v3a12.6,12.6,0,0,1-12.68,12.5h0a12.6,12.6,0,0,1-12.69-12.5v-.88"/></svg>