<svg id="Layer_1" data-name="Layer 1" xmlns="http://www.w3.org/2000/svg" viewBox="0 0 600 300"><defs><style>.cls-1{fill:none;stroke:#feede8;stroke-miterlimit:10;}.cls-2{fill:#333;}</style></defs><path class="cls-1" d="M-14.35,13.06c64,0,64,20,128.05,20s64-20,128.06-20,64,20,128.06,20,64-20,128.06-20,64,20,128.07,20"/><path class="cls-1" d="M-14.35,3.06c64,0,64,20,128.05,20s64-20,128.06-20,64,20,128.06,20,64-20,128.06-20,64,20,128.07,20"/><path class="cls-1" d="M-14.35-6.94c64,0,64,20,128.05,20s64-20,128.06-20,64,20,128.06,20,64-20,128.06-20,64,20,128.07,20"/><path class="cls-1" d="M-14.35-16.94c64,0,64,20,128.05,20s64-20,128.06-20,64,20,128.06,20,64-20,128.06-20,64,20,128.07,20"/><path class="cls-1" d="M-14.35,23.06c64,0,64,20,128.05,20s64-20,128.06-20,64,20,128.06,20,64-20,128.06-20,64,20,128.07,20"/><path class="cls-1" d="M-14.35,33.06c64,0,64,20,128.05,20s64-20,128.06-20,64,20,128.06,20,64-20,128.06-20,64,20,128.07,20"/><path class="cls-1" d="M-14.35,43.06c64,0,64,20,128.05,20s64-20,128.06-20,64,20,128.06,20,64-20,128.06-20,64,20,128.07,20"/><path class="cls-1" d="M-14.35,53.06c64,0,64,20,128.05,20s64-20,128.06-20,64,20,128.06,20,64-20,128.06-20,64,20,128.07,20"/><path class="cls-1" d="M-14.35,63.06c64,0,64,20,128.05,20s64-20,128.06-20,64,20,128.06,20,64-20,128.06-20,64,20,128.07,20"/><path class="cls-1" d="M-14.35,73.06c64,0,64,20,128.05,20s64-20,128.06-20,64,20,128.06,20,64-20,128.06-20,64,20,128.07,20"/><path class="cls-1" d="M-14.35,83.06c64,0,64,20,128.05,20s64-20,128.06-20,64,20,128.06,20,64-20,128.06-20,64,20,128.07,20"/><path class="cls-1" d="M-14.35,93.06c64,0,64,20,128.05,20s64-20,128.06-20,64,20,128.06,20,64-20,128.06-20,64,20,128.07,20"/><path class="cls-1" d="M-14.35,103.06c64,0,64,20,128.05,20s64-20,128.06-20,64,20,128.06,20,64-20,128.06-20,64,20,128.07,20"/><path class="cls-1" d="M-14.35,113.06c64,0,64,20,128.05,20s64-20,128.06-20,64,20,128.06,20,64-20,128.06-20,64,20,128.07,20"/><path class="cls-1" d="M-14.35,123.06c64,0,64,20,128.05,20s64-20,128.06-20,64,20,128.06,20,64-20,128.06-20,64,20,128.07,20"/><path class="cls-1" d="M-14.35,133.06c64,0,64,20,128.05,20s64-20,128.06-20,64,20,128.06,20,64-20,128.06-20,64,20,128.07,20"/><path class="cls-1" d="M-14.35,143.06c64,0,64,20,128.05,20s64-20,128.06-20,64,20,128.06,20,64-20,128.06-20,64,20,128.07,20"/><path class="cls-1" d="M-14.35,153.06c64,0,64,20,128.05,20s64-20,128.06-20,64,20,128.06,20,64-20,128.06-20,64,20,128.07,20"/><path class="cls-1" d="M-14.35,163.06c64,0,64,20,128.05,20s64-20,128.06-20,64,20,128.06,20,64-20,128.06-20,64,20,128.07,20"/><path class="cls-1" d="M-14.35,173.06c64,0,64,20,128.05,20s64-20,128.06-20,64,20,128.06,20,64-20,128.06-20,64,20,128.07,20"/><path class="cls-1" d="M-14.35,183.06c64,0,64,20,128.05,20s64-20,128.06-20,64,20,128.06,20,64-20,128.06-20,64,20,128.07,20"/><path class="cls-1" d="M-14.35,193.06c64,0,64,20,128.05,20s64-20,128.06-20,64,20,128.06,20,64-20,128.06-20,64,20,128.07,20"/><path class="cls-1" d="M-14.35,203.06c64,0,64,20,128.05,20s64-20,128.06-20,64,20,128.06,20,64-20,128.06-20,64,20,128.07,20"/><path class="cls-1" d="M-14.35,213.06c64,0,64,20,128.05,20s64-20,128.06-20,64,20,128.06,20,64-20,128.06-20,64,20,128.07,20"/><path class="cls-1" d="M-14.35,223.06c64,0,64,20,128.05,20s64-20,128.06-20,64,20,128.06,20,64-20,128.06-20,64,20,128.07,20"/><path class="cls-1" d="M-14.35,233.06c64,0,64,20,128.05,20s64-20,128.06-20,64,20,128.06,20,64-20,128.06-20,64,20,128.07,20"/><path class="cls-1" d="M-14.35,243.06c64,0,64,20,128.05,20s64-20,128.06-20,64,20,128.06,20,64-20,128.06-20,64,20,128.07,20"/><path class="cls-1" d="M-14.35,253.06c64,0,64,20,128.05,20s64-20,128.06-20,64,20,128.06,20,64-20,128.06-20,64,20,128.07,20"/><path class="cls-1" d="M-14.35,263.06c64,0,64,20,128.05,20s64-20,128.06-20,64,20,128.06,20,64-20,128.06-20,64,20,128.07,20"/><path class="cls-1" d="M-14.35,273.06c64,0,64,20,128.05,20s64-20,128.06-20,64,20,128.06,20,64-20,128.06-20,64,20,128.07,20"/><path class="cls-1" d="M-14.35,283.06c64,0,64,20,128.05,20s64-20,128.06-20,64,20,128.06,20,64-20,128.06-20,64,20,128.07,20"/><path class="cls-1" d="M-14.35,293.06c64,0,64,20,128.05,20s64-20,128.06-20,64,20,128.06,20,64-20,128.06-20,64,20,128.07,20"/><path class="cls-2" d="M363.86,207.05l-2-1.64a87.11,87.11,0,1,0-134.55-.14l-2,.6a12.13,12.13,0,0,1-14-5.43c-1.65-2.8-3-5.7-4.83-9.61A97.09,97.09,0,1,1,374.2,205.7,7.1,7.1,0,0,1,363.86,207.05Z"/><path class="cls-2" d="M294.65,247.11a96.81,96.81,0,0,1-51.79-15,5,5,0,1,1,5.34-8.45,87.21,87.21,0,0,0,92.44.29,5,5,0,1,1,5.28,8.49A96.93,96.93,0,0,1,294.65,247.11Z"/><path class="cls-2" d="M352.32,173l-9.89-1.44A151.81,151.81,0,0,0,344,150c0-23.73-5.34-46-15-62.62-9.2-15.79-21.13-24.49-33.6-24.49s-24.4,8.7-33.6,24.49c-9.69,16.65-15,38.89-15,62.62a151.89,151.89,0,0,0,1.34,20.24l-9.91,1.33A161.68,161.68,0,0,1,236.71,150c0-25.47,5.82-49.5,16.38-67.65,11.06-19,26.06-29.46,42.24-29.46s31.18,10.46,42.24,29.46C348.14,100.5,354,124.53,354,150A160.31,160.31,0,0,1,352.32,173Z"/><path class="cls-2" d="M295.33,247.11c-18.86,0-36-14.22-47.12-39l9.13-4.08c9.4,21,23.25,33.1,38,33.1,14.07,0,27.51-11.18,36.87-30.68l9,4.33C330.12,233.86,313.39,247.11,295.33,247.11Z"/><path class="cls-2" d="M316.2,115.17l-1.29-9.91c18.94-2.47,36.17-8.6,48.5-17.26l5.74,8.18C355.52,105.75,336.72,112.5,316.2,115.17Z"/><path class="cls-2" d="M274.44,115.17c-21-2.74-40.13-9.72-53.85-19.64l5.86-8.11c12.39,9,29.9,15.3,49.29,17.84Z"/><path class="cls-2" d="M269.2,195.75l-1.76-9.84a162.12,162.12,0,0,1,53.67-.36l-1.62,9.87a152.19,152.19,0,0,0-50.29.33Z"/><path class="cls-2" d="M285.9,135a1,1,0,0,1-.24,0,1,1,0,0,1-.73-1.21l8.45-34.18a1,1,0,1,1,1.94.48l-8.45,34.18A1,1,0,0,1,285.9,135Z"/><path class="cls-2" d="M302.8,135a1,1,0,0,1-1-.77L294,100a1,1,0,1,1,1.95-.45l7.84,34.19A1,1,0,0,1,303,135Z"/><path class="cls-2" d="M294.35,158.45a1,1,0,0,1-1-1V128.18a1,1,0,0,1,2,0v29.27A1,1,0,0,1,294.35,158.45Z"/><path class="cls-2" d="M305.52,150.9a1,1,0,0,1-1-1c0-6.55-2.45-16.79-4-18.53a5.9,5.9,0,0,0-4.35-1.84h-3.54a5.9,5.9,0,0,0-4.35,1.84c-1.6,1.74-4.05,12-4.05,18.53a1,1,0,1,1-2,0c0-6.23,2.31-17.41,4.58-19.88a7.85,7.85,0,0,1,5.82-2.49h3.54a7.85,7.85,0,0,1,5.82,2.49c2.28,2.47,4.58,13.65,4.58,19.88A1,1,0,0,1,305.52,150.9Z"/><path class="cls-2" d="M327.76,147.56l25,22.54c.94.94,8.05,7.85,14.35,8.23,6.94.43,10.69-3.84,12.34-8.19,1.35,1.79-.43,26.11.21,26.93-9.41,18.74-23,20.19-31.43,18.47-9.74-2-17.93-8.1-21.86-12L297.7,176.36a27.93,27.93,0,0,1-3.07-3.54,27.93,27.93,0,0,1-3.07,3.54S270.72,195.7,263,203.47c-3.93,3.92-12.12,10-21.86,12-8.41,1.72-22,.27-31.44-18.47.65-.82-1.13-25.14.21-26.93,1.66,4.35,5.41,8.62,12.35,8.19,6.3-.39,13.41-7.29,14.35-8.23l25-22.54,2-16.38a5,5,0,0,1,.33-1.79L275,95.15a12.86,12.86,0,0,1,16.6-7.38,12.4,12.4,0,0,1,3.09,1.71,10.58,10.58,0,0,1,2.95-1.71,12.84,12.84,0,0,1,16.6,7.38l11.13,34.19a5,5,0,0,1,.34,1.79l2,16.38Zm-23.05,21.68s24.9,23.31,27.26,25.58c8.35,8,13.13,8.66,17.61,9.89,7,1.9,15.18-2.61,18.19-7.25,0,0,4.77-7.87,5.12-9.49-4.58,2.34-10.49,1.46-18.1-2.89-3.82-2.19-9.28-7.93-9.28-7.93l-26.28-24-.05,0a5,5,0,0,1-1.46-3.53l-2-17.53L305.32,99.8c-1.1-2.87-3.25-3.85-5.61-3s-3.68,2.88-2.7,8c-.73.26-1.75-3.53-2.38-3.58s-.78,1.53-2.52,3.61c1.37-5-1.13-7.66-4.09-7.66-1.57,0-3.07.27-4.36,3.4l-10.12,31.56-2,17.53a5,5,0,0,1-1.46,3.53l-26.29,24s-5.46,5.74-9.28,7.93c-7.6,4.35-13.52,5.23-18.09,2.89.35,1.62,5.12,9.49,5.12,9.49,3,4.64,11.2,9.15,18.18,7.25,4.49-1.23,9.27-1.85,17.61-9.89,2.36-2.27,27.26-25.59,27.26-25.59.73-.7,1.27-1.58,2-2.3a25.85,25.85,0,0,0,7.83-16.64s0,8.41,8.27,16.64c.71.72,1.26,1.6,2,2.31"/><rect class="cls-2" x="289.44" y="168.58" width="10" height="72.1"/><rect class="cls-2" x="289.44" y="55.5" width="10" height="38.44"/><rect class="cls-2" x="202.99" y="142.56" width="67.06" height="10"/><rect class="cls-2" x="321.47" y="142.56" width="67.06" height="10"/><polygon class="cls-2" points="294.65 99.04 286.86 130.1 291.56 128.18 297.32 128.63 302.07 130.79 294.65 99.04"/></svg>