<svg id="Layer_2" data-name="Layer 2" xmlns="http://www.w3.org/2000/svg" viewBox="0 0 920 148"><defs><style>.cls-1{fill:#feece7;}</style></defs><path class="cls-1" d="M21.74,139.9c0-8.41-7.71-37,5-37s4.72,28.36,4.72,37c7,0,14.12-25.34,13.1-49.08a176.79,176.79,0,0,0-7.82-44.58S29,29,26.72,29,16.36,46.24,16.36,46.24A153.38,153.38,0,0,0,8.67,90.82C8.23,114.22,15.43,139.9,21.74,139.9Z"/><path class="cls-1" d="M83.74,139.9c0-8.41-7.71-37,5-37s4.72,28.36,4.72,37c7,0,16.56-23.9,7.56-50.9C88.19,50.58,84.29,22,82,22S71.14,66.09,70.67,90.82C70.23,114.22,77.43,139.9,83.74,139.9Z"/><path class="cls-1" d="M145.74,139.9c0-8.41-7.71-37,5-37s4.72,28.36,4.72,37c7,0,11.56-21.44,11.56-49.9,0-40-6.63-66.32-12-69-2-1-3-1-5.48.83-6,4.43-6.75,26.07-13.52,68.17C132.29,113.1,139.43,139.9,145.74,139.9Z"/><path class="cls-1" d="M207.74,139.9c0-8.41-6.81-32.33,5-37,12.28-4.88,4.72,28.36,4.72,37,7,0,19.73-22.58,22.56-50.9,4-40-2.63-62.32-8-65-2-1-5.33-2.24-5.48.83C225,58,206,68,200,95,194.92,117.84,201.43,139.9,207.74,139.9Z"/><path class="cls-1" d="M269.74,139.9c0-8.41-6.47-31.54,5-37,12.28-5.88,4.72,28.36,4.72,37,7,0,16-23.21,22.56-50.9,10-42-1-59-2-64-.44-2.19-2.12-1.95-3,1-4.52,15.17-21,27-35,69C254.6,117.2,263.43,139.9,269.74,139.9Z"/><path class="cls-1" d="M331.74,139.9c0-8.41-6.18-25.42,5.26-30.9,12.28-5.88,4.44,22.24,4.44,30.9,7,0,14.38-23.64,22.56-50.9,9-30,4-39,0-54-.58-2.16-4.21-2.51-6,0-5,7-21,17-34,60C317.23,117.4,325.43,139.9,331.74,139.9Z"/><path class="cls-1" d="M393.74,139.9c0-8.41-6.18-22.42,5.26-27.9,12.28-5.88,4.44,19.24,4.44,27.9,7,0,15.16-23.42,22.56-50.9,7-26,8-28-4-53-2.77-5.77-20.12,5.65-30,18-4,5-7,5-6,41C386.65,118.39,387.43,139.9,393.74,139.9Z"/><path class="cls-1" d="M455.74,139.9c0-8.41-6.87-32.63,5.26-28.9,13,4,4.44,20.24,4.44,28.9,7,0,12.88-22.83,17.56-50.9,9-54-14-66-22-64-5.9,1.48-7,13-20,31-4.72,6.54-2,25,0,39C444.31,118.16,449.43,139.9,455.74,139.9Z"/><path class="cls-1" d="M517.74,139.9c0-8.41-6.87-33.63,5.26-29.9,13,4,4.44,21.24,4.44,29.9C545,120,542.67,120.74,541,89c-3-58-20.79-64.82-29-64-10,1-16,11-14,32,.76,8,3,24,5,38C506.31,118.16,511.43,139.9,517.74,139.9Z"/><path class="cls-1" d="M579.74,139.9c0-8.41-6.87-33.63,5.26-29.9,13,4,4.44,21.24,4.44,29.9C599,131,605,112,601,87c-8.83-55.2-24-63-29-62-3.92.78-11,9-11,38,0,8.06,2,18,4,32C568.31,118.16,573.43,139.9,579.74,139.9Z"/><path class="cls-1" d="M641.74,139.9c0-8.41-4.33-35.65,5.26-29.9,10,6,4.44,21.24,4.44,29.9C661,131,667,119.83,662,95c-11-55-23-66-27-65s-9,7-9,36c0,8.06,1,19,3,33C632.31,122.16,635.43,139.9,641.74,139.9Z"/><path class="cls-1" d="M703.74,139.9c0-8.41-.74-28.9,5.26-29.9,11.5-1.92,4.44,21.24,4.44,29.9C723,131,731,118.83,726,94c-9-45-13.42-51.78-16-55-12-15-15-14-22,9-2.35,7.71.55,20.62,5,42C698,114,689,140,703.74,139.9Z"/><path class="cls-1" d="M765.74,139.9c0-8.41-.09-32.31,5.26-32.9,9-1,4.44,24.24,4.44,32.9,5.56.1,11-20.63,12.56-45.9,3-50,3-60-2-67-15.7-22-31-24-29-1s6,36,3,64C757.39,114.38,759,141,765.74,139.9Z"/><path class="cls-1" d="M827.74,139.9c0-8.41,1.91-32.31,7.26-32.9,9-1,2.44,24.24,2.44,32.9,5.32.1,11.56-4.9,11.17-46.56a24.15,24.15,0,0,1,1.26-6.49C859.1,53,860.75,36,858,25c-2-7.79-8.63-14.63-16.22-17.15A1.39,1.39,0,0,0,840,9.14C837.87,63,829,66.2,823,94,817.86,118,821,141,827.74,139.9Z"/><path class="cls-1" d="M889.74,139.9c0-8.41-.09-32.31,5.26-32.9,9-1,4.44,24.24,4.44,32.9,5.32.1,13.6-9.59,11.56-42.9-1.61-26.34-3-29,1-47,3-13.6,8-29,5-31-2.35-1.57-16,14-23,29-8.56,18.35-10.55,30-12,47C879,130,883,141,889.74,139.9Z"/></svg>
