<svg id="Layer_1" data-name="Layer 1" xmlns="http://www.w3.org/2000/svg" viewBox="0 0 70 83"><defs><style>.cls-1{fill:#333;}</style></defs><path class="cls-1" d="M32.42,78.48c0-4.36-4-19.19,2.59-19.19S37.45,74,37.45,78.48c3.64,0,7.32-13.13,6.79-25.44a91.59,91.59,0,0,0-4.05-23.11S36.19,21,35,21s-5.37,8.93-5.37,8.93a79.29,79.29,0,0,0-4,23.11C25.42,65.17,29.16,78.48,32.42,78.48Z"/><path class="cls-1" d="M68,1.91V43.85H60.56V8.52h-19V1.91Z"/><path class="cls-1" d="M2.12,1.91V43.85H9.56V8.52h19V1.91Z"/></svg>