<svg id="Layer_3" data-name="Layer 3" xmlns="http://www.w3.org/2000/svg" viewBox="0 0 494 300"><defs><style>.cls-1{fill:none;stroke:#06f;stroke-miterlimit:10;stroke-width:0.5px;}</style></defs><line class="cls-1" x1="368.58" y1="198.53" x2="332.05" y2="-4"/><line class="cls-1" x1="366.5" y1="175.5" x2="352.5" y2="-3.5"/><line class="cls-1" x1="367.5" y1="175.5" x2="360.5" y2="-6.5"/><line class="cls-1" x1="358.5" y1="180.5" x2="250.5" y2="-3.5"/><line class="cls-1" x1="356.5" y1="182.5" x2="199.5" y2="-6.5"/><line class="cls-1" x1="355.5" y1="183.5" x2="182.5" y2="-3.5"/><line class="cls-1" x1="368.58" y1="198.53" x2="97.5" y2="-3.5"/><line class="cls-1" x1="351.5" y1="189.5" x2="1.5" y2="-3.5"/><line class="cls-1" x1="368.58" y1="198.53" x2="0.5" y2="383.5"/><line class="cls-1" x1="368.58" y1="198.53" x2="177.5" y2="410.5"/><line class="cls-1" x1="361.5" y1="212.5" x2="264.5" y2="407.5"/><line class="cls-1" x1="368.58" y1="198.53" x2="348.5" y2="410.5"/><line class="cls-1" x1="375.5" y1="211.5" x2="487.5" y2="410.5"/><line class="cls-1" x1="381.5" y1="213.5" x2="494.5" y2="350.5"/><line class="cls-1" x1="384.5" y1="210.5" x2="494.5" y2="296.5"/><line class="cls-1" x1="368.58" y1="198.53" x2="485.5" y2="-4.5"/><line class="cls-1" x1="378.5" y1="178.5" x2="468.5" y2="-3.5"/><line class="cls-1" x1="360.5" y1="176.5" x2="287.5" y2="-3.5"/><circle class="cls-1" cx="370.5" cy="196.5" r="20"/><circle class="cls-1" cx="367.5" cy="194.5" r="19"/></svg>