<svg id="Layer_3" data-name="Layer 3" xmlns="http://www.w3.org/2000/svg" viewBox="0 0 494 300"><defs><style>.cls-1{fill:none;stroke:#333;stroke-miterlimit:10;stroke-width:0.5px;}</style></defs><line class="cls-1" x1="368.58" y1="198.53" x2="332.05" y2="-4"/><line class="cls-1" x1="364.5" y1="144.5" x2="352.5" y2="-3.5"/><line class="cls-1" x1="365.5" y1="141.5" x2="360.5" y2="-6.5"/><line class="cls-1" x1="339.27" y1="147.74" x2="231.27" y2="-36.26"/><line class="cls-1" x1="335.5" y1="158.5" x2="199.5" y2="-6.5"/><line class="cls-1" x1="329.5" y1="155.5" x2="182.5" y2="-3.5"/><line class="cls-1" x1="368.58" y1="198.53" x2="97.5" y2="-3.5"/><line class="cls-1" x1="323.5" y1="174.5" x2="1.5" y2="-3.5"/><line class="cls-1" x1="368.58" y1="198.53" x2="0.5" y2="383.5"/><line class="cls-1" x1="368.58" y1="198.53" x2="177.5" y2="410.5"/><line class="cls-1" x1="347.5" y1="240.5" x2="264.5" y2="407.5"/><line class="cls-1" x1="368.58" y1="198.53" x2="348.5" y2="410.5"/><line class="cls-1" x1="394.5" y1="245.5" x2="487.5" y2="410.5"/><line class="cls-1" x1="396.5" y1="231.5" x2="494.5" y2="350.5"/><line class="cls-1" x1="403.5" y1="224.5" x2="494.5" y2="296.5"/><line class="cls-1" x1="368.58" y1="198.53" x2="485.5" y2="-4.5"/><line class="cls-1" x1="393.5" y1="150.5" x2="468.5" y2="-3.5"/><line class="cls-1" x1="348.5" y1="149.5" x2="287.5" y2="-3.5"/><circle class="cls-1" cx="372.18" cy="197.34" r="53.66"/><circle class="cls-1" cx="364.13" cy="191.98" r="50.98"/></svg>
