<?xml version="1.0" encoding="utf-8"?>
<!-- Generator: Adobe Illustrator 25.2.3, SVG Export Plug-In . SVG Version: 6.00 Build 0)  -->
<svg version="1.1" id="Layer_2" xmlns="http://www.w3.org/2000/svg" xmlns:xlink="http://www.w3.org/1999/xlink" x="0px" y="0px"
	 viewBox="0 0 920 148" style="enable-background:new 0 0 920 148;" xml:space="preserve">
<style type="text/css">
	.st0{fill:#E4BE8F;}
	.st1{fill:#FFFFCC;}
</style>
<path class="st0" d="M21.74,139.9c0-8.42-7.71-37.02,4.98-37.02s4.72,28.36,4.72,37.02c7.01,0,14.12-25.34,13.1-49.08
	C43.47,66,36.72,46.24,36.72,46.24S29.01,29,26.72,29c-2.24,0-10.36,17.24-10.36,17.24S9.14,66.09,8.67,90.82
	C8.23,114.22,15.43,139.9,21.74,139.9z"/>
<path class="st0" d="M83.74,139.9c0-8.42-7.71-37.02,4.98-37.02s4.72,28.36,4.72,37.02c7.01,0,16.56-23.9,7.56-50.9
	C88.19,50.58,84.29,22,82,22c-2.24,0-10.86,44.09-11.33,68.82C70.23,114.22,77.43,139.9,83.74,139.9z"/>
<path class="st0" d="M145.74,139.9c0-8.42-7.71-37.02,4.98-37.02c12.69,0,4.72,28.36,4.72,37.02c7.01,0,11.56-21.44,11.56-49.9
	c0-40-6.63-66.32-12-69c-2-1-3-1-5.48,0.83C143.55,26.26,142.77,47.9,136,90C132.29,113.1,139.43,139.9,145.74,139.9z"/>
<path class="st0" d="M207.74,139.9c0-8.42-6.81-32.34,4.98-37.02c12.28-4.88,4.72,28.36,4.72,37.02c7.01,0,19.73-22.59,22.56-50.9
	c4-40-2.63-62.32-8-65c-2-1-5.33-2.24-5.48,0.83C225,58,206,68,200,95C194.92,117.84,201.43,139.9,207.74,139.9z"/>
<path class="st0" d="M269.74,139.9c0-8.42-6.46-31.54,4.98-37.02c12.28-5.88,4.72,28.36,4.72,37.02c7.01,0,15.97-23.22,22.56-50.9
	c10-42-1-59-2-64c-0.44-2.19-2.12-1.95-3,1c-4.52,15.17-21,27-35,69C254.6,117.2,263.43,139.9,269.74,139.9z"/>
<path class="st0" d="M331.74,139.9c0-8.42-6.18-25.42,5.26-30.9c12.28-5.88,4.44,22.24,4.44,30.9c7.01,0,14.38-23.64,22.56-50.9
	c9-30,4-39,0-54c-0.58-2.16-4.21-2.51-6,0c-5,7-21,17-34,60C317.23,117.4,325.43,139.9,331.74,139.9z"/>
<path class="st0" d="M393.74,139.9c0-8.42-6.18-22.42,5.26-27.9c12.28-5.88,4.44,19.24,4.44,27.9c7.01,0,15.16-23.42,22.56-50.9
	c7-26,8-28-4-53c-2.77-5.77-20.12,5.65-30,18c-4,5-7,5-6,41C386.65,118.39,387.43,139.9,393.74,139.9z"/>
<path class="st0" d="M455.74,139.9c0-8.42-6.86-32.64,5.26-28.9c13,4,4.44,20.24,4.44,28.9c7.01,0,12.88-22.83,17.56-50.9
	c9-54-14-66-22-64c-5.9,1.48-7,13-20,31c-4.72,6.54-2,25,0,39C444.31,118.16,449.43,139.9,455.74,139.9z"/>
<path class="st0" d="M517.74,139.9c0-8.42-6.86-33.64,5.26-29.9c13,4,4.44,21.24,4.44,29.9C545,120,542.67,120.74,541,89
	c-3.04-58-20.79-64.82-29-64c-10,1-16,11-14,32c0.76,8.03,3,24,5,38C506.31,118.16,511.43,139.9,517.74,139.9z"/>
<path class="st1" d="M579.74,139.9c0-8.42-6.86-33.64,5.26-29.9c13,4,4.44,21.24,4.44,29.9C599,131,605,112,601,87
	c-8.83-55.2-24-63-29-62c-3.92,0.78-11,9-11,38c0,8.06,2,18,4,32C568.31,118.16,573.43,139.9,579.74,139.9z"/>
<path class="st0" d="M641.74,139.9c0-8.42-4.32-35.66,5.26-29.9c10,6,4.44,21.24,4.44,29.9C661,131,666.97,119.83,662,95
	c-11-55-23-66-27-65c-3.88,0.97-9,7-9,36c0,8.06,1,19,3,33C632.31,122.16,635.43,139.9,641.74,139.9z"/>
<path class="st0" d="M703.74,139.9c0-8.42-0.74-28.9,5.26-29.9c11.5-1.92,4.44,21.24,4.44,29.9C723,131,730.97,118.83,726,94
	c-9-45-13.42-51.78-16-55c-12-15-15-14-22,9c-2.35,7.71,0.55,20.62,5,42C698,114,689,140,703.74,139.9z"/>
<path class="st0" d="M765.74,139.9c0-8.42-0.09-32.31,5.26-32.9c9-1,4.44,24.24,4.44,32.9C781,140,786.48,119.27,788,94
	c3-50,3-60-2-67c-15.7-21.99-31-24-29-1c2.01,23.11,6,36,3,64C757.39,114.38,759,141,765.74,139.9z"/>
<path class="st0" d="M827.74,139.9c0-8.42,1.91-32.31,7.26-32.9c9-1,2.44,24.24,2.44,32.9c5.32,0.09,11.56-4.9,11.17-46.57
	c-0.02-2.2,0.67-4.36,1.25-6.49C859.1,52.96,860.75,36.02,858,25c-1.95-7.79-8.63-14.63-16.22-17.15c-0.88-0.29-1.79,0.37-1.83,1.29
	c-2.08,53.9-11,57.05-16.96,84.86C817.86,117.97,821,141,827.74,139.9z"/>
<path class="st0" d="M889.74,139.9c0-8.42-0.09-32.31,5.26-32.9c9-1,4.44,24.24,4.44,32.9c5.32,0.09,13.6-9.59,11.56-42.9
	c-1.61-26.34-3-29,1-47c3.02-13.6,8-29,5-31c-2.35-1.57-16,14-23,29c-8.56,18.35-10.55,30.03-12,47C879,130,883,141,889.74,139.9z"
	/>
</svg>
